<?xml version="1.0" encoding="UTF-8"?><svg id="Layer_2" xmlns="http://www.w3.org/2000/svg" viewBox="0 0 79.6 130.04"><defs><style>.cls-1{fill:#210062;}</style></defs><g id="Layer_1-2"><path class="cls-1" d="m69.4,49.32c3.76-1.28,6.4-3.56,7.92-6.84,1.52-3.28,2.28-7.84,2.28-13.68,0-6.4-.48-11.66-1.44-15.78-.96-4.12-2.82-7.32-5.58-9.6-2.76-2.28-6.66-3.42-10.7-3.42H29.52v105.32c0,1.84-.38,3.26-1.14,4.26-.76,1-1.9,1.5-3.42,1.5-1.6,0-2.78-.54-3.54-1.62-.76-1.08-1.14-2.54-1.14-4.38v-24.6H0v25.8c0,5.04,1.1,9.34,3.3,12.9,2.2,3.56,5.22,6.26,9.06,8.1,3.84,1.84,8.12,2.76,12.84,2.76s9.22-1.1,13.02-3.3c3.8-2.2,6.76-5.32,8.88-9.36,2.12-4.04,3.18-8.74,3.18-14.1v-47.24c2.85.02,4.82.42,5.92,1.2,1.12.8,1.68,2.64,1.68,5.52v40.32h20.16l.24-39c0-4.24-.7-7.6-2.1-10.08-1.4-2.48-3.66-4.04-6.78-4.68Zm-14.28-11.16h-4.84v-19.08h4.72c1.2,0,2.12.26,2.76.78.64.52,1.08,1.46,1.32,2.82.24,1.36.36,3.4.36,6.12,0,6.24-1.44,9.36-4.32,9.36Z"/></g></svg>