<?xml version="1.0" encoding="UTF-8"?><svg id="Layer_2" xmlns="http://www.w3.org/2000/svg" viewBox="0 0 308.21 245.41"><defs><style>.cls-1{fill:#77037b;}</style></defs><g id="Layer_1-2"><path class="cls-1" d="m33.73,1.7c-.23,2.12-.76,4.23-1.57,6.32-.81,2.09-1.65,4.19-2.52,6.3s-1.61,4.27-2.25,6.46c-.64,2.19-.79,4.41-.47,6.63,3.24-3.7,6.98-6.78,11.23-9.24,4.25-2.46,8.56-4.49,12.93-6.1.58-.22,1.14-.3,1.67-.24.53.06,1.05.09,1.55.1.43-.02.83-.03,1.21-.02.38,0,.82.26,1.32.78,1.22,1.36,1.54,3.25.95,5.67-.59,2.42-1.64,5.78-3.14,10.09,1.53-.74,3.12-1.6,4.78-2.59,1.66-.99,3.31-1.91,4.97-2.78,1.65-.86,3.3-1.56,4.92-2.1,1.63-.53,3.24-.78,4.83-.73.51,0,.98.15,1.44.44.45.29.9.51,1.36.66.3.11.59.14.85.11.27-.03.54.04.81.22.43.23.74.6.95,1.09.21.5.31,1,.3,1.5-.09,1.24-.22,2.95-.39,5.14-.17,2.19-.41,4.39-.72,6.61-.31,2.22-.67,4.28-1.07,6.17-.41,1.89-.85,3.18-1.34,3.85-.39.63-.72,1.02-.98,1.18-.27.16-.81.44-1.62.83-.15-.05-.36,0-.63.16-.27.16-.55.32-.86.46-.41.2-.78.41-1.11.63-.48-1.78-.7-3.59-.65-5.44.05-1.85.2-3.74.46-5.69.25-1.94.56-3.91.92-5.91.36-1.99.65-4.05.88-6.17-2.59.37-4.76,1.07-6.52,2.11-1.76,1.04-3.3,2.24-4.62,3.6-1.32,1.36-2.58,2.77-3.76,4.22-1.19,1.45-2.49,2.77-3.93,3.97-1.28,1-2.47,1.73-3.56,2.19-1.1.47-1.89.57-2.39.31-.43-.23-.62-.77-.59-1.6.04-.83.13-2.07.28-3.71.32-3.36.78-6.93,1.38-10.7.59-3.77,1.01-7.23,1.26-10.36-1.59-.05-3.29.27-5.1.96-1.81.68-3.58,1.59-5.33,2.72-1.75,1.13-3.43,2.47-5.03,4.03-1.6,1.56-2.96,3.21-4.07,4.93.3,2.31-.23,3.94-1.59,4.91-.59.47-1.29.8-2.12.98-.83.18-1.77.34-2.83.47-.71.34-1.35.34-1.9-.03-.55-.36-.92-.89-1.1-1.59-.18-.7-.24-1.25-.19-1.65.39-2.58.81-5.25,1.27-8.01.46-2.76,1.09-5.49,1.9-8.17.81-2.68,1.82-5.28,3.03-7.78,1.21-2.5,2.73-4.79,4.55-6.86.31-.4.54-.57.69-.52.15.05.28.16.39.33.11.17.23.31.35.44.12.13.21.2.24.21.04.01.12.08.24.21Z"/><path class="cls-1" d="m70.84,50.12l-.18-.67c-.49-1.82-.72-3.69-.66-5.58.05-1.85.21-3.78.46-5.74.25-1.95.56-3.95.92-5.93.32-1.78.59-3.62.8-5.49-2.23.38-4.15,1.03-5.69,1.95-1.72,1.01-3.24,2.19-4.52,3.52-1.31,1.35-2.57,2.76-3.73,4.19-1.2,1.47-2.55,2.83-3.99,4.04-1.32,1.03-2.56,1.79-3.68,2.27-1.25.53-2.17.63-2.82.29-.62-.34-.9-1.03-.86-2.07.04-.85.13-2.11.28-3.74.32-3.37.79-6.98,1.38-10.73.55-3.52.96-6.81,1.21-9.79-1.37.03-2.84.34-4.38.92-1.76.67-3.52,1.56-5.24,2.67-1.71,1.1-3.37,2.44-4.95,3.97-1.52,1.48-2.83,3.05-3.9,4.7.27,2.4-.34,4.15-1.81,5.2-.63.5-1.41.87-2.3,1.06-.81.18-1.72.33-2.8.47-1.06.48-1.84.22-2.31-.09-.66-.43-1.1-1.06-1.31-1.88-.2-.77-.26-1.37-.2-1.85.39-2.58.81-5.25,1.27-8.02.46-2.77,1.1-5.54,1.91-8.24.81-2.7,1.84-5.34,3.06-7.85,1.22-2.52,2.78-4.87,4.63-6.98.18-.24.66-.86,1.23-.66.25.09.47.26.64.52.09.14.19.27.3.37.05.05.09.09.12.12.11.05.21.14.36.3l.17.17-.03.24c-.24,2.15-.77,4.32-1.6,6.44-.81,2.09-1.65,4.2-2.52,6.31-.85,2.08-1.6,4.24-2.23,6.41-.51,1.76-.7,3.54-.57,5.33,3.09-3.36,6.65-6.21,10.6-8.5,4.25-2.46,8.62-4.53,13.01-6.14.66-.25,1.29-.34,1.9-.27.53.06,1.03.09,1.51.09.41-.02.83-.03,1.22-.02.52,0,1.07.31,1.67.93,1.35,1.5,1.7,3.56,1.08,6.14-.54,2.2-1.46,5.22-2.75,8.98,1.18-.6,2.4-1.28,3.65-2.03,1.66-.99,3.34-1.93,5-2.79,1.67-.87,3.35-1.58,5-2.13,1.68-.55,3.36-.81,5-.75.59,0,1.16.18,1.69.51.42.26.84.47,1.25.61.23.08.44.11.62.08.39-.05.77.05,1.15.3.49.27.89.72,1.14,1.32.23.56.35,1.13.34,1.7l-.39,5.17c-.17,2.19-.41,4.42-.72,6.64-.31,2.25-.68,4.34-1.08,6.21-.42,1.98-.89,3.3-1.43,4.04-.42.68-.79,1.11-1.13,1.32-.29.18-.85.46-1.67.85l-.19.09-.18-.06s-.07.03-.22.11c-.28.17-.58.33-.9.49-.38.19-.74.39-1.05.6l-.58.39Zm2.48-24.59l-.07.64c-.23,2.12-.53,4.2-.89,6.21-.35,1.97-.66,3.95-.91,5.88-.25,1.92-.4,3.82-.45,5.64-.04,1.56.11,3.12.47,4.64.18-.1.37-.2.57-.3.29-.14.57-.29.82-.44.3-.18.56-.26.81-.25.88-.43,1.27-.64,1.44-.74.11-.06.36-.29.82-1.02.47-.65.89-1.88,1.28-3.69.4-1.85.75-3.91,1.06-6.14.3-2.2.54-4.41.71-6.58l.39-5.14c0-.41-.08-.84-.26-1.27-.16-.39-.4-.67-.73-.85-.21-.13-.37-.18-.51-.16-.34.05-.7,0-1.08-.13-.49-.17-.98-.41-1.46-.71-.38-.24-.76-.35-1.18-.36-1.53-.05-3.1.19-4.67.71-1.6.52-3.23,1.22-4.85,2.06-1.64.86-3.31,1.79-4.95,2.76-1.67.99-3.29,1.87-4.82,2.61l-1.09.53.4-1.14c1.49-4.27,2.54-7.65,3.12-10.04.55-2.27.28-3.98-.83-5.22-.51-.53-.82-.61-.95-.61-.37,0-.77,0-1.18.02-.53,0-1.07-.04-1.63-.1-.45-.05-.93.02-1.44.21-4.33,1.59-8.66,3.64-12.85,6.07-4.18,2.42-7.92,5.49-11.1,9.13l-.71.82-.16-1.07c-.33-2.29-.17-4.59.49-6.85.64-2.2,1.4-4.39,2.27-6.51.86-2.11,1.7-4.21,2.51-6.3.76-1.96,1.27-3.95,1.51-5.93-.09-.05-.18-.14-.32-.28-.14-.15-.28-.32-.41-.51-.01-.02-.02-.03-.04-.05-.05.05-.13.14-.23.27-1.81,2.06-3.32,4.33-4.5,6.78-1.19,2.46-2.2,5.05-3,7.7-.8,2.65-1.43,5.38-1.88,8.11-.46,2.76-.88,5.43-1.27,8-.05.33.01.82.18,1.45.15.58.44,1,.89,1.3.25.17.67.35,1.41,0l.15-.05c1.08-.14,1.99-.29,2.79-.47.74-.16,1.39-.46,1.91-.88,1.22-.88,1.68-2.33,1.4-4.46l-.02-.18.1-.15c1.13-1.76,2.53-3.45,4.14-5.02,1.62-1.58,3.34-2.96,5.1-4.09,1.77-1.14,3.6-2.07,5.42-2.76,1.86-.7,3.64-1.03,5.29-.99l.53.02-.04.52c-.25,3.14-.67,6.64-1.27,10.4-.59,3.73-1.05,7.32-1.38,10.67-.15,1.61-.24,2.85-.28,3.69-.02.43.02.98.33,1.14.19.1.72.2,1.96-.33,1.05-.45,2.21-1.16,3.45-2.12,1.38-1.15,2.68-2.47,3.85-3.89,1.18-1.45,2.45-2.88,3.79-4.25,1.35-1.39,2.94-2.62,4.73-3.68,1.81-1.07,4.06-1.8,6.7-2.18l.64-.09Z"/><path class="cls-1" d="m118.23,30.91c.34.71.63,1.47.86,2.27.23.8.38,1.59.44,2.38.1,1.65-.07,3.18-.52,4.59-.45,1.41-1.58,2.9-3.4,4.47-2.02,1.67-4.29,2.87-6.79,3.61-2.5.74-4.99.89-7.46.45-1.77-.28-3.42-.88-4.97-1.79-1.54-.92-2.87-2.21-3.99-3.87-.59.22-1.14.64-1.65,1.27-.52.63-.84,1.25-.97,1.88-.22,1.11-.22,2.4-.01,3.87.21,1.47.61,2.56,1.21,3.28,1.1.98,2.88,1.64,5.34,1.99,2.46.35,5.16.51,8.1.47,2.94-.04,5.87-.2,8.81-.49,2.94-.29,5.46-.53,7.56-.73-.16.45-.36.72-.6.81-.24.09-.58.26-1.01.54-.51.25-1.08.55-1.72.92-.64.37-1.33.64-2.06.81-.91.19-1.68.58-2.31,1.16-.63.59-1.58,1-2.84,1.23-1.7.26-3.42.52-5.17.8-1.75.28-3.46.49-5.11.63-1.66.14-3.29.13-4.88-.05-1.59-.17-3.08-.58-4.46-1.24-.93-.49-1.65-1.04-2.16-1.64-.51-.6-1.09-1.44-1.73-2.51-.32-.54-.72-1.1-1.19-1.69-.47-.59-.8-1.12-.96-1.61-.63-2.34-.79-4.66-.49-6.97.3-2.31.95-4.5,1.97-6.56,1.01-2.06,2.3-3.98,3.86-5.77,1.55-1.79,3.31-3.31,5.28-4.58,1.1-.72,2.37-1.4,3.82-2.03,1.45-.64,2.98-1.12,4.57-1.46,1.6-.33,3.21-.47,4.84-.41,1.63.06,3.19.39,4.67.99.58.29,1.06.65,1.46,1.08.4.44.85.91,1.35,1.42.32.28.72.65,1.2,1.12.47.46.85.91,1.12,1.34Zm-5.62,5.54c.08-.73-.12-1.48-.61-2.25-.5-.76-1.1-1.46-1.81-2.09-.71-.63-1.47-1.13-2.28-1.49-.81-.36-1.42-.54-1.85-.52-.68.02-1.52.17-2.51.46-.99.29-1.98.69-2.96,1.19-.98.5-1.95,1.08-2.89,1.72-.95.65-1.7,1.29-2.27,1.94-.23.17-.49.49-.77.94-.29.45-.39.82-.32,1.1.51,1.45,1.67,2.49,3.49,3.12,1.74.61,3.75.84,6.04.71,2.29-.13,4.01-.51,5.16-1.12.13-.12.39-.33.79-.61.4-.29.79-.62,1.17-.99.39-.37.75-.75,1.1-1.14.35-.39.52-.71.53-.96Z"/><path class="cls-1" d="m97.74,62.05c-.92,0-1.83-.05-2.72-.15-1.64-.18-3.2-.61-4.62-1.28-1.01-.53-1.78-1.13-2.33-1.77-.53-.62-1.11-1.47-1.78-2.58-.3-.5-.69-1.05-1.15-1.63-.52-.64-.86-1.21-1.05-1.76-.65-2.42-.82-4.83-.52-7.2.3-2.36.98-4.62,2.02-6.72,1.03-2.09,2.35-4.07,3.93-5.88,1.58-1.81,3.39-3.38,5.39-4.67,1.11-.73,2.42-1.42,3.89-2.07,1.47-.65,3.04-1.15,4.67-1.49,1.63-.34,3.29-.48,4.96-.42,1.68.06,3.3.41,4.84,1.03.67.33,1.21.73,1.65,1.21.4.44.84.91,1.34,1.41.3.26.71.64,1.19,1.11.5.49.9.97,1.19,1.44l.03.05c.36.74.66,1.53.89,2.35.24.82.39,1.66.46,2.47.11,1.71-.08,3.32-.54,4.78-.48,1.49-1.67,3.07-3.55,4.7-2.08,1.71-4.42,2.96-6.97,3.71-2.57.76-5.16.91-7.69.46-1.81-.28-3.54-.91-5.13-1.86-1.49-.89-2.8-2.12-3.9-3.67-.38.21-.74.53-1.09.96-.46.56-.75,1.12-.87,1.67-.2,1.04-.21,2.29,0,3.7.19,1.37.56,2.39,1.1,3.03.97.85,2.67,1.48,5.03,1.81,2.43.35,5.13.5,8.02.47,2.91-.04,5.86-.2,8.77-.48,2.94-.29,5.46-.53,7.56-.73l.78-.07-.25.74c-.21.61-.51.97-.9,1.12-.15.05-.42.18-.91.49-.54.26-1.11.57-1.74.93-.68.39-1.42.68-2.2.86-.83.17-1.52.52-2.08,1.04-.7.65-1.74,1.11-3.1,1.36-1.71.26-3.44.53-5.18.81-1.76.28-3.49.49-5.15.63-.75.07-1.51.1-2.26.1Zm9.94-36.62c-1.34,0-2.68.14-4,.41-1.56.32-3.07.8-4.47,1.42-1.42.62-2.68,1.29-3.75,1.99-1.92,1.24-3.66,2.75-5.18,4.49-1.52,1.74-2.79,3.65-3.78,5.66-.99,2-1.63,4.15-1.92,6.4-.29,2.24-.13,4.52.48,6.78.14.39.43.88.87,1.42.49.61.9,1.2,1.23,1.74.63,1.05,1.19,1.87,1.68,2.44.46.55,1.14,1.06,2.01,1.53,1.3.61,2.75,1.01,4.28,1.18,1.55.17,3.16.19,4.78.05,1.63-.14,3.34-.35,5.08-.63,1.75-.28,3.48-.55,5.18-.8,1.15-.21,2.02-.58,2.58-1.1.69-.65,1.55-1.08,2.55-1.29.68-.15,1.32-.41,1.91-.75.66-.38,1.24-.69,1.76-.94.15-.1.29-.18.43-.26-1.78.17-3.82.37-6.11.59-2.94.29-5.92.45-8.85.49-2.94.03-5.69-.12-8.17-.48-2.59-.37-4.42-1.06-5.6-2.11-.71-.84-1.15-2.03-1.37-3.58-.22-1.52-.21-2.88.02-4.04.15-.71.52-1.42,1.08-2.11.56-.69,1.19-1.17,1.86-1.42l.37-.14.22.33c1.07,1.59,2.36,2.84,3.83,3.72,1.48.88,3.09,1.47,4.79,1.73,2.39.43,4.83.28,7.24-.43,2.42-.71,4.65-1.9,6.61-3.51,1.73-1.49,2.82-2.92,3.24-4.23.43-1.34.6-2.83.5-4.4-.06-.74-.21-1.51-.42-2.27-.22-.75-.49-1.48-.82-2.16-.25-.39-.6-.8-1.03-1.23-.47-.45-.86-.82-1.18-1.1-.53-.54-.99-1.02-1.39-1.46-.35-.38-.8-.71-1.32-.97-1.39-.56-2.91-.88-4.47-.94-.24,0-.49-.01-.73-.01Zm-5.01,16.38c-1.85,0-3.53-.26-5.01-.77-1.96-.68-3.23-1.83-3.79-3.43-.12-.46,0-.95.37-1.53.3-.48.58-.82.85-1.04.59-.67,1.37-1.33,2.33-1.99.96-.66,1.95-1.25,2.94-1.76,1.01-.52,2.03-.93,3.05-1.23,1.04-.31,1.91-.46,2.64-.48.5-.02,1.18.16,2.07.56.85.39,1.66.92,2.4,1.57.74.65,1.38,1.39,1.9,2.2.55.86.79,1.72.69,2.56-.02.37-.23.78-.65,1.26-.36.4-.73.79-1.12,1.17-.39.38-.8.73-1.23,1.04-.47.34-.66.5-.73.57l-.11.08c-1.22.66-2.98,1.04-5.37,1.18-.42.02-.83.04-1.23.04Zm3.45-11.22s-.03,0-.04,0c-.65.01-1.45.16-2.39.44-.95.28-1.92.67-2.87,1.16-.96.49-1.91,1.06-2.83,1.69-.91.62-1.64,1.24-2.17,1.86l-.08.07c-.12.09-.33.31-.65.8-.29.46-.27.66-.26.71.45,1.27,1.49,2.19,3.17,2.77,1.67.58,3.64.81,5.85.68,2.17-.13,3.81-.47,4.89-1.04.15-.14.41-.34.79-.61.38-.28.76-.59,1.11-.94.38-.37.74-.74,1.08-1.12.38-.43.4-.62.4-.64v-.05c.08-.62-.1-1.25-.53-1.92-.47-.73-1.05-1.4-1.72-1.99s-1.4-1.07-2.15-1.41c-.86-.39-1.33-.47-1.58-.47Z"/><path class="cls-1" d="m124.78,89.37c.45.16.8.37,1.05.62.17.23.28.52.33.88.05.36-.15.8-.59,1.32-.43,1.72-1.08,3.27-1.94,4.66-.87,1.39-1.83,2.75-2.88,4.08-.59.72-1.16,1.27-1.71,1.63-.55.36-1.07.64-1.57.85-.5.21-1.02.43-1.56.66-.55.23-1.1.55-1.66.94-.82.65-1.54,1.26-2.17,1.85-.63.58-1.42.92-2.39,1.01,1.06-1.83,1.98-3.42,2.74-4.76.76-1.34,1.45-2.76,2.05-4.24.57-1.41.99-2.73,1.25-3.95.26-1.22.44-2.24.55-3.05-.76-.26-1.2-.63-1.33-1.1-.13-.47-.11-.97.08-1.5.18-.53.49-1.04.91-1.52s.8-.84,1.13-1.07c.13-.38.41-.76.85-1.17.44-.4,1.01-.52,1.71-.36.48.08.94.33,1.39.74.45.41.94.83,1.46,1.27.45.41.86.81,1.24,1.19.38.38.72.72,1.05,1Z"/><path class="cls-1" d="m108.77,108.46l.49-.84c1.06-1.83,1.97-3.42,2.74-4.76.75-1.32,1.43-2.72,2.02-4.18.56-1.38.98-2.68,1.22-3.86.21-1.03.38-1.91.49-2.63-.68-.31-1.11-.74-1.26-1.28-.16-.56-.13-1.17.09-1.8.2-.59.54-1.15,1.01-1.69.4-.46.76-.81,1.1-1.06.18-.41.48-.8.92-1.21.56-.51,1.29-.67,2.16-.47.55.09,1.1.38,1.62.86.44.41.92.82,1.45,1.26.47.43.89.84,1.27,1.23.34.35.65.65.95.91.48.18.87.42,1.15.71.27.35.41.72.47,1.16.06.48-.14,1.01-.63,1.62-.44,1.71-1.1,3.29-1.98,4.69-.87,1.39-1.85,2.78-2.92,4.12-.63.77-1.24,1.35-1.83,1.74-.58.38-1.14.68-1.65.89-.5.21-1.02.43-1.56.66-.51.22-1.04.52-1.57.89-.79.62-1.51,1.23-2.12,1.81-.71.66-1.61,1.04-2.68,1.14l-.96.09Zm10.3-22.87c-.33,0-.59.1-.8.29-.37.34-.61.66-.72.96l-.05.16-.14.09c-.29.2-.64.53-1.04.98-.38.44-.66.89-.82,1.36-.15.44-.17.83-.07,1.2.11.38.61.62,1.02.77l.39.13-.06.41c-.11.82-.3,1.82-.56,3.08-.26,1.24-.69,2.6-1.28,4.04-.61,1.5-1.31,2.94-2.08,4.3-.63,1.1-1.35,2.36-2.17,3.79.39-.15.74-.36,1.04-.65.63-.59,1.37-1.22,2.2-1.88.61-.43,1.2-.77,1.78-1.01.55-.23,1.07-.45,1.57-.66.46-.19.96-.46,1.49-.81.5-.33,1.04-.84,1.6-1.53,1.04-1.31,2-2.67,2.84-4.03.83-1.34,1.47-2.86,1.88-4.52l.1-.2c.47-.56.49-.84.48-.94-.04-.26-.11-.48-.23-.64-.15-.15-.44-.32-.82-.45l-.16-.09c-.34-.29-.69-.63-1.08-1.03-.37-.38-.77-.77-1.21-1.17-.52-.43-1.01-.86-1.46-1.27-.38-.34-.76-.55-1.14-.62-.18-.04-.34-.06-.49-.06Z"/><path class="cls-1" d="m236.94,52.73c-.41.2-.71.28-.91.25-.2-.03-.48-.02-.83.03-.46.09-.89.12-1.29.06-.41-.06-.81-.11-1.21-.17-.33-.03-.81.01-1.44.13-.63.12-1.23.12-1.78.01-1.04-.19-2.18-.42-3.44-.69-1.26-.27-2.6-.57-4.01-.89.08,4.86-.09,9.84-.51,14.95-.43,5.11-1.19,9.92-2.3,14.45-1.11,4.53-2.64,8.55-4.59,12.06-1.95,3.52-4.4,6.11-7.36,7.79-3.62,2.12-7.78,2.62-12.47,1.5-2.12-.48-4.33-1.38-6.62-2.69-2.3-1.31-4.44-2.76-6.43-4.34-1.99-1.58-3.67-3.21-5.04-4.87-1.37-1.66-2.14-3.12-2.29-4.36-.23-1.52.15-2.74,1.15-3.67.36-.3.63-.6.83-.92.19-.31.53-.43,1.01-.35.4.06.89.29,1.47.7.57.41,1.03.76,1.35,1.04l1.71.21c2.19,2.46,4.7,4.62,7.52,6.5,2.82,1.87,5.65,3.22,8.5,4.04,1.23.35,2.5.49,3.79.43,1.29-.06,2.54-.6,3.74-1.62,1.31-1.32,2.79-3.5,4.43-6.52,1.65-3.03,3.18-6.45,4.6-10.28,1.42-3.83,2.63-7.9,3.62-12.21,1-4.31,1.55-8.44,1.65-12.39-2.4-.66-4.73-1.33-6.99-1.99-2.27-.66-4.06-1.31-5.36-1.93-1.08-.54-2.1-1.13-3.07-1.77-.97-.63-1.88-1.52-2.75-2.67-.56.4-1.06.73-1.49,1-.43.27-.8.36-1.1.25-.62-.64-.99-1.47-1.1-2.48-.11-1.01-.28-1.81-.5-2.4-.15-.31-.1-.69.15-1.16.25-.46.76-.6,1.54-.42.76.01,2.41.25,4.96.71,2.55.46,5.43,1.13,8.65,2,3.21.87,6.49,1.92,9.82,3.17,3.33,1.25,6.24,2.68,8.73,4.31,2.28,1.47,4.18,3.19,5.7,5.16Z"/><path class="cls-1" d="m199.45,103.29c-1.53,0-3.13-.2-4.79-.6-2.15-.49-4.43-1.42-6.75-2.74-2.31-1.32-4.49-2.79-6.49-4.38-2.01-1.6-3.73-3.27-5.11-4.94-1.45-1.75-2.23-3.26-2.4-4.61-.26-1.68.18-3.06,1.31-4.1.33-.28.58-.54.74-.81.17-.28.6-.73,1.52-.58.47.07,1.03.33,1.68.79.53.38.95.7,1.27.97l1.74.22.12.14c2.15,2.41,4.65,4.57,7.42,6.41,2.77,1.84,5.58,3.18,8.36,3.98,1.17.33,2.39.47,3.63.41,1.17-.05,2.33-.56,3.44-1.5,1.24-1.26,2.7-3.41,4.32-6.38,1.63-2.99,3.17-6.43,4.57-10.21,1.4-3.79,2.62-7.88,3.6-12.15.95-4.12,1.5-8.12,1.63-11.9-2.27-.63-4.47-1.26-6.62-1.89-2.33-.68-4.11-1.32-5.44-1.96-1.1-.56-2.15-1.16-3.13-1.8-.9-.59-1.77-1.4-2.58-2.41-.41.29-.79.54-1.13.75-.57.36-1.09.46-1.53.3l-.11-.04-.08-.08c-.7-.72-1.12-1.65-1.24-2.78-.11-.97-.27-1.73-.47-2.28-.2-.42-.15-.96.18-1.57.25-.47.8-.96,2.05-.68.81.02,2.44.26,4.99.72,2.56.47,5.48,1.14,8.69,2.01,3.2.86,6.52,1.93,9.87,3.18,3.36,1.26,6.33,2.72,8.83,4.36,2.31,1.5,4.27,3.27,5.82,5.28l.38.49-.56.27c-.51.25-.89.34-1.2.3-.11-.01-.33-.02-.7.03-.48.1-.97.12-1.43.06l-1.21-.17c-.17-.01-.55,0-1.28.13-.69.13-1.36.13-1.97.01-1.03-.19-2.19-.42-3.45-.69-1.08-.23-2.21-.48-3.4-.75.06,4.65-.12,9.47-.52,14.36-.43,5.11-1.21,9.99-2.32,14.53-1.12,4.55-2.68,8.65-4.64,12.18-1.98,3.58-4.52,6.27-7.55,7.99-2.43,1.43-5.13,2.15-8.05,2.15Zm-22.34-21.79c-.22,0-.27.09-.3.13-.23.36-.54.71-.94,1.04-.86.79-1.18,1.85-.97,3.21.15,1.15.88,2.53,2.19,4.12,1.33,1.62,3,3.24,4.96,4.8,1.96,1.56,4.1,3.01,6.37,4.3,2.24,1.28,4.43,2.17,6.49,2.64,4.54,1.09,8.61.61,12.1-1.44,2.87-1.63,5.28-4.19,7.17-7.6,1.91-3.46,3.44-7.47,4.54-11.94,1.1-4.48,1.87-9.32,2.29-14.37.42-5.08.59-10.09.51-14.89v-.64s.61.14.61.14c1.41.32,2.74.62,4,.89,1.25.27,2.4.5,3.43.69.5.1,1.03.09,1.6-.01.69-.13,1.21-.17,1.58-.14l1.24.17c.34.05.72.03,1.12-.05.43-.06.75-.07,1-.03h.02c-1.4-1.69-3.13-3.2-5.14-4.5-2.44-1.6-5.34-3.04-8.63-4.26-3.32-1.24-6.61-2.3-9.78-3.16-3.18-.86-6.07-1.53-8.61-1.99-2.51-.46-4.15-.7-4.88-.71h-.11c-.8-.21-.94.06-.98.15-.12.22-.23.51-.14.71.25.67.43,1.49.54,2.56.09.85.38,1.54.87,2.08.15,0,.35-.07.58-.22.43-.27.92-.6,1.47-.99l.4-.28.29.38c.83,1.1,1.72,1.96,2.63,2.56.95.62,1.96,1.21,3.02,1.74,1.26.6,3.03,1.24,5.28,1.9,2.26.66,4.59,1.33,6.99,1.99l.38.1v.39c-.12,3.96-.68,8.16-1.67,12.49-1,4.31-2.22,8.44-3.64,12.27-1.42,3.83-2.98,7.31-4.63,10.34-1.66,3.05-3.18,5.28-4.52,6.64-1.32,1.12-2.67,1.7-4.07,1.77-1.34.06-2.67-.09-3.95-.45-2.88-.83-5.79-2.21-8.64-4.11-2.79-1.85-5.31-4.02-7.49-6.44l-1.67-.21-.12-.1c-.31-.27-.75-.61-1.32-1.01-.63-.45-1.03-.58-1.25-.61-.08-.01-.15-.02-.21-.02Z"/><path class="cls-1" d="m264.33,83.5c.14,2.76.15,5.69.05,8.79-.11,3.1-.47,6.09-1.09,8.96-.62,2.88-1.55,5.54-2.79,7.99-1.24,2.45-2.9,4.37-4.99,5.76-.87.54-1.69.6-2.47.16-.28-.18-.47-.46-.6-.84-.12-.38-.33-.75-.63-1.11-.22-.33-.48-.63-.77-.9-.29-.27-.5-.68-.65-1.24-1.27-.02-2.57.14-3.92.48-1.35.34-2.72.69-4.11,1.04-1.4.36-2.83.69-4.28.98-1.46.3-2.88.37-4.27.23-1.49-.1-2.47-.5-2.94-1.22-.47-.71-.98-1.5-1.52-2.37-.37-.64-.61-1.04-.72-1.21-.11-.17-.1-.69.04-1.57.35-1.74.96-3.54,1.82-5.4.86-1.86,1.97-3.65,3.34-5.38,3.89-5.08,9.08-7.59,15.59-7.53.76.01,1.48.2,2.16.56.68.36,1.3.82,1.88,1.35.57.54,1.1,1.15,1.59,1.83.48.68.91,1.33,1.28,1.97l1.3,2.11c.82-1.15,1.29-2.54,1.39-4.16.1-1.62-.04-3.23-.41-4.84-.37-1.61-.9-3.13-1.59-4.56-.69-1.43-1.46-2.5-2.31-3.22-3.85-1.34-7.62-1.66-11.3-.95-3.68.71-7.45,2-11.32,3.87-.21.1-.42.15-.63.16-.22,0-.41.03-.59.05-.28.07-.56.02-.83-.16-.2-.15-.16-.39.12-.72,1.3-2.26,2.96-4.12,4.99-5.57s4.2-2.58,6.52-3.38c2.31-.8,4.66-1.34,7.04-1.61,2.38-.27,4.63-.29,6.76-.06.35-.05.67-.04.95.01.28.05.6.15.98.28.53.18.97.51,1.31.97.35.46.76.99,1.23,1.57.62.64,1.23,1.34,1.81,2.09.58.75,1.06,1.58,1.43,2.47.32.79.56,1.55.73,2.29.17.74.31,1.42.43,2.05Zm-10.89,18.83c-.11-1.14-.49-2.29-1.15-3.45-.66-1.16-1.52-2.16-2.58-3-1.06-.84-2.33-1.39-3.81-1.65-1.48-.26-3.13-.08-4.96.56-.8.82-1.63,1.74-2.49,2.76-.86,1.01-1.61,2.07-2.24,3.16-.64,1.09-1.14,2.23-1.51,3.41-.37,1.19-.5,2.35-.39,3.49,3.21.02,6.4-.14,9.57-.48,3.17-.33,5.9-.65,8.21-.95.61-.29,1.01-.58,1.19-.86.18-.28.25-.55.22-.81-.03-.27-.09-.58-.18-.95-.08-.37-.05-.78.11-1.23Z"/><path class="cls-1" d="m254.11,115.94c-.45,0-.89-.12-1.31-.36-.4-.26-.67-.63-.83-1.12-.1-.32-.28-.64-.54-.94-.23-.34-.46-.61-.73-.86-.28-.26-.51-.63-.67-1.1-1.11.02-2.26.17-3.42.46-1.35.34-2.71.68-4.11,1.04-1.36.35-2.81.68-4.31.99-1.5.3-2.99.38-4.42.23-1.63-.1-2.75-.59-3.31-1.44-.47-.71-.98-1.51-1.53-2.38-.37-.64-.61-1.03-.71-1.19-.17-.25-.24-.67-.04-1.93.36-1.8.99-3.65,1.86-5.54.87-1.88,2.01-3.73,3.4-5.48,3.92-5.12,9.22-7.72,15.75-7.72.08,0,.16,0,.24,0,.84.01,1.64.22,2.39.62.71.38,1.38.86,1.98,1.43.6.56,1.15,1.2,1.65,1.9.49.69.93,1.36,1.31,2.01l.87,1.41c.51-.93.81-2.02.88-3.24.09-1.56-.04-3.14-.4-4.7-.36-1.57-.89-3.07-1.55-4.45-.64-1.31-1.35-2.32-2.11-3-3.72-1.28-7.4-1.59-10.95-.9-3.62.7-7.39,1.99-11.2,3.83-.27.13-.55.2-.83.21-.2,0-.38.03-.55.04-.35.1-.77.02-1.17-.24-.21-.16-.32-.35-.35-.57-.03-.28.09-.58.37-.89,1.27-2.23,3-4.16,5.08-5.65,2.06-1.47,4.29-2.63,6.64-3.45,2.34-.81,4.74-1.36,7.15-1.64,2.39-.27,4.68-.29,6.81-.06.38-.04.73-.04,1.04.02.3.06.66.16,1.05.3.62.22,1.14.6,1.55,1.14.35.46.75.98,1.22,1.56.61.62,1.23,1.34,1.82,2.1.61.79,1.11,1.66,1.49,2.58.33.81.58,1.61.75,2.37.17.75.31,1.44.43,2.07v.07c.15,2.77.16,5.74.06,8.83-.11,3.12-.48,6.17-1.1,9.05-.63,2.9-1.58,5.63-2.83,8.11-1.27,2.52-3.01,4.52-5.16,5.95-.57.35-1.13.53-1.68.53Zm-3.87-5.39c.06,0,.12,0,.17,0h.38s.1.38.1.38c.12.46.29.8.5,1,.32.3.6.63.84.99.31.36.55.79.69,1.24.09.27.21.46.39.58.59.33,1.21.29,1.93-.16,2-1.33,3.62-3.2,4.81-5.56,1.21-2.4,2.13-5.05,2.74-7.87.61-2.83.97-5.81,1.08-8.87.1-3.04.09-5.97-.05-8.71-.12-.62-.26-1.29-.42-2-.16-.71-.4-1.45-.7-2.21-.35-.84-.8-1.63-1.36-2.35-.57-.73-1.16-1.42-1.78-2.05-.51-.63-.92-1.16-1.27-1.62-.29-.38-.64-.64-1.08-.79-.35-.12-.66-.21-.92-.26-.23-.04-.49-.05-.79,0h-.06s-.06,0-.06,0c-2.07-.23-4.3-.21-6.64.06-2.34.27-4.67.8-6.94,1.59-2.26.79-4.41,1.9-6.39,3.32-1.96,1.4-3.59,3.22-4.85,5.41-.05.06-.08.11-.11.14.11.04.2.02.26,0,.25-.04.46-.05.69-.06.14,0,.29-.04.43-.11,3.89-1.88,7.74-3.19,11.45-3.91,3.75-.72,7.64-.4,11.56.97l.16.09c.9.76,1.72,1.9,2.44,3.38.7,1.45,1.25,3.02,1.63,4.66.38,1.65.52,3.33.42,4.99-.11,1.71-.6,3.19-1.48,4.42l-.44.61-1.69-2.75c-.37-.63-.79-1.28-1.26-1.94-.46-.65-.97-1.24-1.52-1.75-.54-.51-1.14-.94-1.77-1.28-.6-.32-1.25-.49-1.93-.5-6.28-.07-11.42,2.41-15.18,7.33-1.34,1.7-2.45,3.48-3.28,5.29-.84,1.81-1.44,3.59-1.78,5.29-.15.99-.1,1.22-.09,1.25.09.12.34.53.72,1.18.53.85,1.04,1.64,1.51,2.35.38.58,1.24.91,2.56.99,1.35.14,2.74.07,4.14-.22,1.48-.3,2.92-.63,4.26-.98,1.4-.36,2.77-.71,4.12-1.05,1.31-.33,2.61-.49,3.87-.49Zm-15.39-2.44c-.17,0-.35,0-.52,0h-.45s-.04-.45-.04-.45c-.12-1.2.02-2.44.41-3.68.38-1.21.9-2.39,1.55-3.51.64-1.11,1.42-2.2,2.3-3.23.86-1.02,1.71-1.95,2.51-2.78l.08-.09.11-.04c1.9-.66,3.66-.85,5.21-.58,1.55.27,2.91.86,4.03,1.75,1.11.87,2.02,1.93,2.71,3.14.69,1.22,1.09,2.45,1.21,3.65v.11s-.03.1-.03.1c-.13.36-.16.68-.1.96.09.39.15.72.19,1,.05.38-.05.77-.3,1.15-.24.36-.69.7-1.39,1.03l-.15.05c-2.33.3-5.1.62-8.22.95-3,.32-6.05.48-9.1.48Zm-.05-1h.05c3.01,0,6.03-.16,9-.47,3.08-.33,5.81-.64,8.12-.94.63-.31.84-.54.92-.65.11-.17.16-.33.14-.47-.03-.26-.09-.56-.17-.91-.1-.42-.07-.89.09-1.4-.12-1.03-.48-2.09-1.07-3.15-.62-1.1-1.45-2.05-2.45-2.85-1-.78-2.2-1.3-3.59-1.55-1.36-.24-2.9-.07-4.6.5-.76.79-1.56,1.68-2.38,2.65-.84.99-1.58,2.03-2.19,3.08-.62,1.06-1.11,2.17-1.46,3.31-.3.96-.43,1.91-.4,2.84Z"/><path class="cls-1" d="m278.67,108.71c1.73-.84,3.52-1.76,5.35-2.77,1.83-1.01,3.71-1.95,5.62-2.81,1.91-.86,3.81-1.57,5.7-2.14,1.89-.57,3.79-.9,5.69-1,.43-.02.8.07,1.12.26.31.19.68.28,1.12.26.6.21,1.13.4,1.59.55.45.16.81.45,1.09.89.82,1.05,1.33,2.31,1.54,3.78.21,1.47.27,3.04.2,4.71.01.94-.1,1.79-.32,2.56-.23.77-.32,1.71-.29,2.82-.05,1.59-.04,3.23,0,4.9.05,1.67-.23,3.16-.86,4.47-.21.35-.43.63-.68.84-.25.21-.54.47-.9.77-.26.25-.65.54-1.19.86-.54.32-1.03.53-1.49.62-.48.17-.81.33-.99.48-.18.15-.61.23-1.29.25-.48-1.78-.7-3.59-.65-5.44.05-1.85.2-3.74.46-5.69.25-1.94.56-3.91.92-5.91.36-1.99.65-4.05.88-6.17.03-.58-.33-1.05-1.1-1.4-.77-.35-1.76-.42-2.98-.21-1.22.21-2.6.72-4.16,1.54-1.55.81-3.11,2.01-4.68,3.58-1.08,1.15-2.14,2.37-3.18,3.66-1.04,1.29-2.14,2.56-3.3,3.81-1.16,1.25-2.41,2.42-3.77,3.52-1.36,1.1-2.84,2-4.44,2.71-.51.25-.79.19-.83-.16-.05-.35-.33-.75-.86-1.19-.4-.31-.59-.54-.58-.71.01-.16.04-.66.08-1.5.1-1.74.26-3.72.48-5.93.22-2.21.44-4.55.67-7.01.22-2.46.43-4.95.63-7.47.2-2.51.35-4.9.46-7.15l.03-2.28c.26-.25.63-.41,1.13-.5.49-.08.99-.12,1.5-.11.51,0,.98.22,1.43.63.45.41.82.67,1.13.77.83.29,1.38,1.08,1.66,2.36.27,1.28.35,2.81.24,4.59-.11,1.78-.37,3.68-.78,5.7-.41,2.02-.88,3.91-1.41,5.67Z"/><path class="cls-1" d="m299.3,129.51l-.1-.38c-.49-1.81-.72-3.69-.67-5.58.05-1.85.21-3.78.46-5.74.25-1.94.56-3.93.92-5.93.35-1.97.65-4.04.88-6.14,0-.12.03-.51-.81-.89-.67-.31-1.57-.37-2.68-.17-1.16.2-2.51.7-4.01,1.49-1.5.79-3.04,1.96-4.56,3.49-1.06,1.13-2.12,2.35-3.15,3.62-1.04,1.28-2.15,2.57-3.32,3.83-1.17,1.26-2.46,2.46-3.82,3.57-1.38,1.11-2.91,2.05-4.55,2.78-.16.08-.68.33-1.12.1-.13-.07-.36-.25-.42-.65-.01-.1-.11-.39-.68-.87-.39-.3-.8-.68-.76-1.14.01-.16.04-.65.08-1.47.1-1.77.26-3.78.48-5.96.22-2.21.44-4.54.66-7.01.22-2.46.43-4.95.63-7.46.2-2.52.35-4.92.46-7.13l.03-2.47.15-.14c.33-.32.8-.53,1.39-.63.51-.08,1.03-.12,1.59-.12.63,0,1.23.26,1.77.76.5.45.79.62.95.67,1,.35,1.67,1.27,1.98,2.72.28,1.33.37,2.92.25,4.73-.11,1.78-.38,3.72-.79,5.77-.33,1.62-.7,3.17-1.1,4.63,1.4-.69,2.84-1.45,4.32-2.26,1.84-1.01,3.74-1.97,5.65-2.83,1.91-.86,3.85-1.59,5.76-2.16,1.93-.58,3.88-.92,5.8-1.02.53-.02,1,.09,1.4.33.23.14.5.2.83.19h.1s1.68.58,1.68.58c.56.19,1.01.56,1.35,1.09.84,1.07,1.39,2.42,1.61,3.97.21,1.5.28,3.12.21,4.8.01.96-.1,1.87-.34,2.68-.21.72-.3,1.61-.26,2.67-.05,1.61-.04,3.24,0,4.9.05,1.74-.25,3.32-.91,4.7-.25.43-.52.76-.8,1.01-.25.21-.55.47-.91.77-.26.25-.68.56-1.25.9-.58.35-1.13.58-1.64.69-.49.18-.7.31-.78.38-.28.23-.76.34-1.6.36h-.39Zm-.82-25.94c.73,0,1.37.12,1.92.37,1.21.55,1.42,1.33,1.39,1.88-.23,2.15-.53,4.24-.89,6.23-.36,1.98-.66,3.96-.91,5.88-.25,1.93-.41,3.82-.45,5.64-.05,1.66.13,3.31.53,4.9.47-.04.59-.11.6-.12.23-.19.6-.37,1.14-.56.46-.1.91-.29,1.4-.58.5-.3.87-.56,1.1-.79.38-.32.68-.57.92-.78.2-.17.39-.42.57-.72.57-1.19.84-2.62.79-4.2-.05-1.67-.06-3.33,0-4.93-.04-1.13.06-2.13.31-2.95.21-.71.31-1.53.3-2.41.07-1.65,0-3.21-.2-4.65-.2-1.38-.68-2.57-1.44-3.54-.24-.38-.52-.6-.86-.72l-1.5-.52c-.48.04-.93-.11-1.3-.34-.23-.14-.49-.2-.83-.19-1.84.1-3.71.43-5.57.98-1.87.56-3.77,1.28-5.64,2.12-1.89.85-3.77,1.79-5.58,2.79-1.85,1.02-3.66,1.96-5.37,2.79l-1.02.49.33-1.09c.52-1.74.99-3.63,1.39-5.63.4-2,.66-3.9.77-5.63.11-1.72.03-3.22-.23-4.46-.24-1.11-.67-1.76-1.33-1.99-.37-.13-.79-.42-1.3-.88-.36-.33-.72-.49-1.1-.5-.47,0-.96.03-1.41.11-.3.05-.54.13-.71.25l-.03,2.04c-.11,2.24-.26,4.65-.46,7.18-.2,2.52-.41,5.01-.63,7.47-.22,2.47-.45,4.8-.67,7.02-.22,2.17-.38,4.16-.48,5.91-.03.74-.06,1.21-.07,1.43.04.05.14.16.38.35.58.48.91.92,1.02,1.36.04-.01.09-.04.15-.06,1.58-.7,3.03-1.59,4.34-2.65,1.33-1.07,2.58-2.24,3.71-3.47,1.15-1.24,2.25-2.52,3.27-3.78,1.04-1.29,2.12-2.53,3.21-3.68,1.6-1.61,3.22-2.84,4.81-3.68,1.59-.83,3.04-1.37,4.3-1.59.48-.08.93-.12,1.35-.12Zm-26.56,17.39s0,0,0,0c0,0,0,0,0,0Z"/><path class="cls-1" d="m157.99,133.69c-3.71,12.4-10,24.36-18.4,35.41-8.36,11.04-19.16,21.13-31.63,29.77-24.96,17.39-57.32,28.72-91.19,32.3l.07.39c12.98-.28,25.97-2.17,38.37-5.14,54.57-12.97,96.88-50.3,103.3-92.63l-.51-.08Z"/><path class="cls-1" d="m16.42,232.06l-.25-1.34.54-.06c33.99-3.59,66.3-15.03,90.96-32.21,12.63-8.75,23.24-18.72,31.52-29.66,8.5-11.17,14.66-23.02,18.32-35.25l.12-.42,1.44.23-.07.49c-3.15,20.81-14.83,40.73-33.76,57.63-18.78,16.76-42.96,29.01-69.92,35.42-13.14,3.15-26.08,4.89-38.47,5.16h-.42Zm140.97-94.87c-3.78,11.16-9.62,21.98-17.41,32.21-8.34,11.02-19.02,21.07-31.75,29.88-22.89,15.95-52.32,26.97-83.57,31.41,9.9-.69,20.1-2.29,30.42-4.77,26.8-6.37,50.83-18.54,69.49-35.19,17.69-15.79,28.98-34.23,32.82-53.54Z"/><path class="cls-1" d="m16.01,232.57l-.43-2.29,1.08-.11c33.91-3.58,66.13-14.99,90.72-32.13,12.59-8.72,23.16-18.66,31.41-29.55,8.46-11.12,14.6-22.92,18.24-35.09l.25-.84,2.36.38-.15.98c-3.17,20.92-14.9,40.95-33.92,57.93-18.84,16.82-43.1,29.1-70.14,35.53-13.17,3.16-26.15,4.9-38.58,5.17l-.85.02Zm138.8-87.28c-3.64,8.41-8.47,16.58-14.43,24.41-8.37,11.06-19.09,21.15-31.86,29.98-19,13.23-42.48,23.09-67.77,28.61,4.7-.77,9.45-1.72,14.22-2.87,26.72-6.35,50.68-18.48,69.27-35.08,15.08-13.46,25.49-28.85,30.57-45.06Z"/><path class="cls-1" d="m15.6,233.08l-.61-3.24,1.62-.17c33.83-3.57,65.96-14.95,90.49-32.04,12.55-8.69,23.08-18.59,31.29-29.44,8.42-11.07,14.54-22.83,18.16-34.94l.38-1.26,3.28.53-.22,1.47c-3.19,21.04-14.97,41.17-34.08,58.22-18.9,16.87-43.23,29.2-70.36,35.64-13.21,3.17-26.22,4.92-38.68,5.19l-1.27.03Zm.57-2.35l.25,1.34h.42c12.39-.28,25.33-2.01,38.47-5.17,26.96-6.41,51.14-18.66,69.92-35.42,18.93-16.89,30.6-36.82,33.75-57.63l.07-.49-1.44-.23-.13.42c-3.66,12.23-9.83,24.09-18.32,35.25-8.28,10.93-18.88,20.91-31.52,29.66-24.66,17.18-56.96,28.62-90.96,32.21l-.54.06Zm24.66-1.93l-.19-.98c25.38-5.55,48.76-15.42,67.59-28.54,12.72-8.81,23.4-18.86,31.75-29.87,5.91-7.77,10.75-15.95,14.37-24.31l.94.35c-5.08,16.23-15.7,31.89-30.71,45.29-18.66,16.65-42.69,28.82-69.49,35.19-4.76,1.14-9.55,2.11-14.25,2.88Zm109.38-73.12c-2.74,4.89-5.9,9.68-9.43,14.33-8.4,11.1-19.16,21.22-31.97,30.09-13.92,9.7-30.29,17.62-48.12,23.36,24.3-6.65,46.06-18.15,63.23-33.47,11.59-10.34,20.54-22.04,26.3-34.3Z"/><path class="cls-1" d="m15.68,231.89c-2.32-.76-4.92-1.6-7.11-2.54,7.94-3.56,15.09-8.37,19.73-14.29l-.37-.28c-5.07,3.6-10.62,6.86-16.66,9.51-2.18.97-4.69,1.91-7,2.72-4.12,1.3-3.18,3.22-.07,4.85,4.42,2.26,9.52,3.6,14.49,4.98,9.98,2.65,20.16,4.84,30.4,6.84l.14-.38c-6.3-2.72-12.78-4.86-19.21-6.93-4.8-1.54-9.59-2.95-14.33-4.49Zm-10.09-1.25s.04-.03.07-.05c.04-.02.08-.03.12-.05-.09.07-.14.09-.19.11,0,0-.01,0,0-.01Z"/><path class="cls-1" d="m49.4,244.26l-.42-.08c-12.03-2.35-21.71-4.52-30.44-6.85l-1.1-.31c-4.59-1.28-9.34-2.6-13.49-4.71-2.06-1.08-3.05-2.18-2.96-3.29.09-1.04,1.11-1.85,3.1-2.48,2.72-.95,5.06-1.86,6.95-2.7,5.64-2.47,11.22-5.66,16.58-9.46l.3-.21,1.07.8-.31.4c-4.17,5.32-10.68,10.13-18.86,13.96,1.9.75,4.02,1.44,5.92,2.06l-.06.51.15-.48c2.53.82,5.08,1.61,7.64,2.4,2.23.69,4.46,1.38,6.69,2.09,6.55,2.11,12.95,4.22,19.26,6.95l.44.19-.46,1.22Zm-22.82-27.93c-4.91,3.35-9.99,6.18-15.13,8.43-1.91.84-4.28,1.76-7.04,2.73-1.49.47-2.37,1.06-2.42,1.62-.06.63.85,1.49,2.42,2.31,4.05,2.07,8.75,3.38,13.29,4.64l1.09.3c7.99,2.13,16.79,4.13,27.48,6.26-5.38-2.18-10.85-3.98-16.43-5.77-2.23-.71-4.46-1.4-6.68-2.09-2.56-.79-5.11-1.58-7.65-2.4h0l.15-.48-.25.45c-2.29-.74-4.87-1.59-7.06-2.52l-.51-.22-1.78,1.35c-.12.09-.21.14-.31.18l-.1.04-.42-.03-.25-.57.52-.45,2.94-1.26c7.66-3.45,13.88-7.75,18.13-12.53Zm-20.65,14.62l.03.03-.03-.03Z"/><path class="cls-1" d="m49.72,244.83l-.83-.16c-12.05-2.35-21.73-4.53-30.47-6.85l-1.1-.31c-4.62-1.28-9.39-2.61-13.58-4.75-2.26-1.18-3.34-2.45-3.23-3.78.17-1.88,2.64-2.66,3.45-2.92,2.69-.94,5.02-1.85,6.9-2.68,5.61-2.46,11.16-5.63,16.49-9.42l.6-.42,1.77,1.33-.63.8c-4.04,5.15-10.23,9.82-17.99,13.6,1.59.59,3.26,1.13,4.8,1.63l-.22.98.31-.95c2.53.82,5.08,1.61,7.63,2.4,2.23.69,4.46,1.38,6.7,2.1,6.56,2.11,12.98,4.23,19.31,6.96l.87.38-.77,2.06Zm-43.79-13.23c3.7,1.7,7.87,2.86,11.92,3.98l1.1.31c6.42,1.71,13.37,3.34,21.41,5.02-3.51-1.26-7.06-2.42-10.65-3.57-2.23-.71-4.46-1.4-6.68-2.09-2.56-.79-5.12-1.58-7.66-2.41h0l.31-.95-.4.92c-2.29-.75-4.9-1.59-7.1-2.54l-.24-.1-1.56,1.17c-.16.12-.29.19-.44.25h0Zm0-.65l.41.35-.41-.35Zm16.81-11.53c-3.63,2.22-7.34,4.17-11.08,5.81-1.92.85-4.3,1.77-7.07,2.74-1.68.53-2.07,1.04-2.09,1.2-.02.17.34.87,2.13,1.81l-.21-.49.86-.81,2.87-1.22c5.76-2.58,10.69-5.65,14.58-9.03Z"/><path class="cls-1" d="m50.04,245.41l-1.25-.24c-12.05-2.35-21.75-4.53-30.5-6.86l-1.11-.31c-4.65-1.29-9.44-2.63-13.67-4.79-2.46-1.29-3.63-2.72-3.5-4.27.2-2.21,2.91-3.07,3.8-3.35,2.67-.94,4.98-1.83,6.84-2.66,5.58-2.45,11.1-5.6,16.4-9.37l.89-.63,2.47,1.86-.94,1.21c-3.88,4.95-9.78,9.51-17.11,13.21,1.16.41,2.35.8,3.44,1.15l.33.11c2.53.82,5.07,1.61,7.62,2.39,2.23.69,4.47,1.38,6.7,2.1,6.57,2.11,13,4.23,19.35,6.98l1.31.57-1.09,2.9Zm-22.11-31.24l-.3.21c-5.35,3.8-10.93,6.99-16.58,9.47-1.88.83-4.22,1.74-6.93,2.69-.75.24-2.98.94-3.12,2.49-.1,1.11.9,2.21,2.96,3.29,4.14,2.11,8.88,3.43,13.47,4.71l1.12.31c8.73,2.32,18.4,4.5,30.43,6.84l.42.08.46-1.22-.44-.19c-6.31-2.73-12.71-4.84-19.26-6.95-2.23-.72-4.47-1.41-6.69-2.09-2.4-.74-4.78-1.48-7.16-2.24l-.15.48h0s0,0,0,0l-.15.48c2.34.75,4.69,1.48,7.05,2.21l.33.1c2.16.67,4.32,1.33,6.48,2.03,4,1.28,7.34,2.38,10.67,3.58l-.27.96c-7.99-1.67-15-3.31-21.43-5.03l-1.1-.31c-4.06-1.13-8.25-2.29-12-4.01l-.12-.05.02.06-1.06-.53h.03s-.2-.11-.2-.11c-1.55-.82-2.45-1.67-2.39-2.3.05-.57.92-1.15,2.44-1.63,2.74-.96,5.11-1.88,7.02-2.72,3.7-1.63,7.41-3.57,11.02-5.78l.59.8c-3.96,3.44-8.91,6.51-14.71,9.11l-2.8,1.19-.55.51.28.68.48-.16s0,0,0,0l.47-.56.15.13,1.45-1.09.5.21c2.05.88,4.46,1.67,6.63,2.38l.2-.46.11-.49c-1.42-.46-2.95-.97-4.39-1.5l-1.1-.41,1.05-.51c7.68-3.73,13.84-8.38,17.81-13.45l.31-.4-1.07-.8Zm-20.95,17.35c3.46,1.49,7.29,2.55,11.01,3.58l1.1.31c3.96,1.05,8.15,2.08,12.64,3.11-.7-.23-1.43-.46-2.17-.7-2.16-.69-4.32-1.36-6.47-2.03l-.33-.1c-2.41-.74-4.81-1.49-7.2-2.26h0s-.28-.09-.28-.09c-.02,0-.04-.01-.06-.02l-.48-.16c-2.22-.72-4.64-1.52-6.73-2.42l-1.02.77Zm-3.91-2.3c.12.16.4.46,1.04.87l.99-.88,2.87-1.22c2.91-1.31,5.6-2.73,8.06-4.26-1.38.69-2.77,1.35-4.15,1.95-1.93.85-4.32,1.78-7.11,2.76-1.06.34-1.51.63-1.69.78Z"/></g></svg>