<?xml version="1.0" encoding="utf-8"?>
<!-- Generator: Adobe Illustrator 27.3.1, SVG Export Plug-In . SVG Version: 6.00 Build 0)  -->
<svg version="1.1" xmlns="http://www.w3.org/2000/svg" xmlns:xlink="http://www.w3.org/1999/xlink" x="0px" y="0px"
	 viewBox="0 0 1920 1080" style="enable-background:new 0 0 1920 1080;" xml:space="preserve">
<style type="text/css">
	.st0{fill:#77037B;}
</style>
<g id="Layer_1">
</g>
<g id="Layer_2">
	<g>
		
			<image style="overflow:visible;" width="6909" height="5504" xlink:href="Me smiling with glasses.png"  transform="matrix(1 0 0 1 -2365.7998 -3260.6636)">
		</image>
		<g>
			<g>
				<path class="st0" d="M1855.6-240.6c-0.9,7.9-2.8,15.8-5.8,23.6c-3,7.8-6.2,15.6-9.4,23.5c-3.2,7.9-6,15.9-8.4,24.1
					c-2.4,8.2-3,16.4-1.8,24.8c12.1-13.8,26.1-25.3,41.9-34.5c15.8-9.2,31.9-16.8,48.3-22.8c2.2-0.8,4.3-1.1,6.2-0.9
					c2,0.2,3.9,0.3,5.8,0.4c1.6-0.1,3.1-0.1,4.5-0.1c1.4,0,3,1,4.9,2.9c4.6,5.1,5.7,12.1,3.5,21.2c-2.2,9-6.1,21.6-11.7,37.7
					c5.7-2.8,11.6-6,17.8-9.7c6.2-3.7,12.4-7.1,18.6-10.4c6.2-3.2,12.3-5.8,18.4-7.8c6.1-2,12.1-2.9,18-2.7c1.9,0,3.7,0.6,5.4,1.6
					c1.7,1.1,3.4,1.9,5.1,2.5c1.1,0.4,2.2,0.5,3.2,0.4c1-0.1,2,0.1,3,0.8c1.6,0.9,2.8,2.2,3.6,4.1c0.8,1.9,1.1,3.7,1.1,5.6
					c-0.3,4.6-0.8,11-1.5,19.2c-0.6,8.2-1.5,16.4-2.7,24.7c-1.2,8.3-2.5,16-4,23c-1.5,7.1-3.2,11.9-5,14.4c-1.5,2.3-2.7,3.8-3.7,4.4
					c-1,0.6-3,1.6-6.1,3.1c-0.6-0.2-1.4,0-2.3,0.6c-1,0.6-2.1,1.2-3.2,1.7c-1.5,0.7-2.9,1.5-4.1,2.4c-1.8-6.6-2.6-13.4-2.4-20.3
					c0.2-6.9,0.8-14,1.7-21.2c0.9-7.3,2.1-14.6,3.4-22c1.3-7.4,2.4-15.1,3.3-23c-9.7,1.4-17.8,4-24.3,7.9
					c-6.6,3.9-12.3,8.4-17.3,13.4c-4.9,5.1-9.6,10.3-14,15.7c-4.4,5.4-9.3,10.4-14.7,14.8c-4.8,3.7-9.2,6.4-13.3,8.2
					c-4.1,1.7-7.1,2.1-8.9,1.2c-1.6-0.9-2.3-2.9-2.2-6c0.1-3.1,0.5-7.7,1-13.9c1.2-12.5,2.9-25.9,5.1-39.9c2.2-14.1,3.8-27,4.7-38.7
					c-5.9-0.2-12.3,1-19,3.6c-6.7,2.6-13.4,5.9-19.9,10.1c-6.5,4.2-12.8,9.2-18.8,15c-6,5.8-11.1,12-15.2,18.4
					c1.1,8.6-0.9,14.7-5.9,18.3c-2.2,1.8-4.8,3-7.9,3.6c-3.1,0.7-6.6,1.3-10.6,1.8c-2.7,1.3-5,1.3-7.1-0.1c-2.1-1.3-3.4-3.3-4.1-5.9
					c-0.7-2.6-0.9-4.7-0.7-6.2c1.5-9.6,3-19.6,4.7-29.9c1.7-10.3,4.1-20.5,7.1-30.5c3-10,6.8-19.7,11.3-29
					c4.5-9.3,10.2-17.9,17-25.6c1.2-1.5,2-2.1,2.6-1.9c0.6,0.2,1,0.6,1.5,1.2c0.4,0.6,0.9,1.2,1.3,1.7c0.5,0.5,0.8,0.7,0.9,0.8
					C1854.8-241.3,1855.1-241.1,1855.6-240.6z"/>
				<path class="st0" d="M1994.1-59.9l-0.7-2.5c-1.8-6.8-2.7-13.8-2.5-20.8c0.2-6.9,0.8-14.1,1.7-21.4c0.9-7.3,2.1-14.7,3.4-22.1
					c1.2-6.6,2.2-13.5,3-20.5c-8.3,1.4-15.5,3.9-21.3,7.3c-6.4,3.8-12.1,8.2-16.9,13.1c-4.9,5-9.6,10.3-13.9,15.6
					c-4.5,5.5-9.5,10.6-14.9,15.1c-4.9,3.8-9.5,6.7-13.7,8.5c-4.7,2-8.1,2.3-10.5,1.1c-2.3-1.3-3.4-3.8-3.2-7.7
					c0.1-3.2,0.5-7.9,1-14c1.2-12.6,2.9-26.1,5.2-40.1c2.1-13.1,3.6-25.4,4.5-36.5c-5.1,0.1-10.6,1.3-16.3,3.5
					c-6.6,2.5-13.2,5.8-19.5,10c-6.4,4.1-12.6,9.1-18.5,14.8c-5.7,5.5-10.6,11.4-14.6,17.5c1,9-1.3,15.5-6.8,19.4
					c-2.3,1.9-5.3,3.2-8.6,3.9c-3,0.7-6.4,1.2-10.4,1.8c-4,1.8-6.9,0.8-8.6-0.4c-2.4-1.6-4.1-4-4.9-7c-0.7-2.9-1-5.1-0.7-6.9
					c1.5-9.6,3-19.6,4.7-29.9c1.7-10.3,4.1-20.7,7.1-30.7c3-10.1,6.9-19.9,11.4-29.3c4.6-9.4,10.4-18.2,17.3-26
					c0.7-0.9,2.5-3.2,4.6-2.5c1,0.3,1.8,1,2.4,1.9c0.4,0.5,0.7,1,1.1,1.4c0.2,0.2,0.3,0.4,0.5,0.4c0.4,0.2,0.8,0.5,1.4,1.1l0.6,0.6
					l-0.1,0.9c-0.9,8-2.9,16.1-6,24c-3,7.8-6.2,15.7-9.4,23.6c-3.2,7.8-6,15.8-8.3,23.9c-1.9,6.6-2.6,13.2-2.1,19.9
					c11.5-12.5,24.8-23.2,39.6-31.7c15.8-9.2,32.2-16.9,48.5-22.9c2.4-0.9,4.8-1.3,7.1-1c2,0.2,3.9,0.3,5.6,0.4
					c1.5-0.1,3.1-0.1,4.5-0.1c1.9,0,4,1.2,6.2,3.5c5,5.6,6.4,13.3,4,22.9c-2,8.2-5.5,19.5-10.3,33.5c4.4-2.2,9-4.8,13.6-7.6
					c6.2-3.7,12.5-7.2,18.7-10.4c6.2-3.2,12.5-5.9,18.7-7.9c6.3-2.1,12.5-3,18.7-2.8c2.2,0,4.3,0.7,6.3,1.9c1.6,1,3.1,1.8,4.7,2.3
					c0.9,0.3,1.6,0.4,2.3,0.3c1.4-0.2,2.9,0.2,4.3,1.1c1.8,1,3.3,2.7,4.3,4.9c0.9,2.1,1.3,4.2,1.3,6.4l-1.5,19.3
					c-0.6,8.2-1.5,16.5-2.7,24.8c-1.2,8.4-2.5,16.2-4,23.2c-1.6,7.4-3.3,12.3-5.3,15.1c-1.6,2.6-2.9,4.1-4.2,4.9
					c-1.1,0.7-3.2,1.7-6.2,3.2l-0.7,0.3l-0.7-0.2c0,0-0.3,0.1-0.8,0.4c-1.1,0.6-2.2,1.2-3.4,1.8c-1.4,0.7-2.7,1.4-3.9,2.2
					L1994.1-59.9z M2003.4-151.7l-0.3,2.4c-0.9,7.9-2,15.7-3.3,23.2c-1.3,7.3-2.5,14.7-3.4,22c-0.9,7.2-1.5,14.3-1.7,21
					c-0.2,5.8,0.4,11.7,1.7,17.3c0.7-0.4,1.4-0.8,2.1-1.1c1.1-0.5,2.1-1.1,3.1-1.6c1.1-0.7,2.1-1,3-0.9c3.3-1.6,4.7-2.4,5.4-2.8
					c0.4-0.2,1.3-1.1,3-3.8c1.7-2.4,3.3-7,4.8-13.8c1.5-6.9,2.8-14.6,4-22.9c1.1-8.2,2-16.5,2.7-24.6l1.5-19.2c0-1.5-0.3-3.1-1-4.7
					c-0.6-1.5-1.5-2.5-2.7-3.2c-0.8-0.5-1.4-0.7-1.9-0.6c-1.3,0.2-2.6,0-4-0.5c-1.8-0.6-3.6-1.5-5.4-2.7c-1.4-0.9-2.8-1.3-4.4-1.3
					c-5.7-0.2-11.6,0.7-17.4,2.6c-6,2-12,4.5-18.1,7.7c-6.1,3.2-12.3,6.7-18.5,10.3c-6.2,3.7-12.3,7-18,9.7l-4.1,2l1.5-4.3
					c5.6-15.9,9.5-28.6,11.7-37.5c2.1-8.5,1-14.8-3.1-19.5c-1.9-2-3.1-2.3-3.6-2.3c-1.4,0-2.9,0-4.4,0.1c-2,0-4-0.1-6.1-0.4
					c-1.7-0.2-3.5,0.1-5.4,0.8c-16.2,6-32.3,13.6-48,22.6c-15.6,9-29.5,20.5-41.4,34.1l-2.7,3l-0.6-4c-1.2-8.5-0.6-17.1,1.8-25.6
					c2.4-8.2,5.2-16.4,8.5-24.3c3.2-7.9,6.3-15.7,9.4-23.5c2.8-7.3,4.7-14.7,5.6-22.1c-0.3-0.2-0.7-0.5-1.2-1
					c-0.5-0.5-1-1.2-1.5-1.9c0-0.1-0.1-0.1-0.1-0.2c-0.2,0.2-0.5,0.5-0.9,1c-6.8,7.7-12.4,16.2-16.8,25.3
					c-4.5,9.2-8.2,18.9-11.2,28.7c-3,9.9-5.3,20.1-7,30.3c-1.7,10.3-3.3,20.3-4.7,29.9c-0.2,1.2,0,3.1,0.7,5.4
					c0.6,2.2,1.6,3.7,3.3,4.8c0.9,0.6,2.5,1.3,5.2,0l0.6-0.2c4-0.5,7.4-1.1,10.4-1.7c2.8-0.6,5.2-1.7,7.1-3.3
					c4.6-3.3,6.3-8.7,5.2-16.6l-0.1-0.7l0.4-0.6c4.2-6.6,9.4-12.9,15.5-18.7c6.1-5.9,12.5-11,19.1-15.3c6.6-4.3,13.4-7.7,20.2-10.3
					c6.9-2.6,13.6-3.8,19.7-3.7l2,0.1l-0.2,2c-0.9,11.7-2.5,24.8-4.7,38.8c-2.2,13.9-3.9,27.3-5.1,39.8c-0.5,6-0.9,10.6-1,13.8
					c-0.1,1.6,0.1,3.6,1.2,4.3c0.7,0.4,2.7,0.7,7.3-1.2c3.9-1.7,8.2-4.3,12.9-7.9c5.2-4.3,10-9.2,14.4-14.5
					c4.4-5.4,9.2-10.7,14.1-15.9c5-5.2,11-9.8,17.6-13.7c6.8-4,15.2-6.7,25-8.1L2003.4-151.7z"/>
			</g>
			<g>
				<path class="st0" d="M2171-131.6c1.3,2.7,2.4,5.5,3.2,8.5c0.9,3,1.4,5.9,1.6,8.9c0.4,6.1-0.3,11.9-1.9,17.1
					c-1.7,5.3-5.9,10.8-12.7,16.7c-7.6,6.2-16,10.7-25.3,13.5c-9.3,2.8-18.6,3.3-27.9,1.7c-6.6-1-12.8-3.3-18.5-6.7
					c-5.8-3.4-10.7-8.2-14.9-14.4c-2.2,0.8-4.2,2.4-6.2,4.7c-1.9,2.3-3.1,4.7-3.6,7c-0.8,4.1-0.8,9-0.1,14.4
					c0.8,5.5,2.3,9.6,4.5,12.2c4.1,3.6,10.7,6.1,19.9,7.4c9.2,1.3,19.3,1.9,30.2,1.8c11-0.1,21.9-0.7,32.9-1.8
					c11-1.1,20.4-2,28.2-2.7c-0.6,1.7-1.3,2.7-2.2,3c-0.9,0.3-2.2,1-3.8,2c-1.9,0.9-4,2.1-6.4,3.4c-2.4,1.4-4.9,2.4-7.7,3
					c-3.4,0.7-6.3,2.2-8.6,4.3c-2.4,2.2-5.9,3.7-10.6,4.6c-6.3,1-12.8,1.9-19.3,3c-6.5,1-12.9,1.8-19.1,2.4
					c-6.2,0.5-12.3,0.5-18.2-0.2c-5.9-0.6-11.5-2.2-16.7-4.6c-3.5-1.8-6.2-3.9-8.1-6.1c-1.9-2.2-4.1-5.4-6.5-9.4
					c-1.2-2-2.7-4.1-4.4-6.3c-1.8-2.2-3-4.2-3.6-6c-2.3-8.7-3-17.4-1.8-26c1.1-8.6,3.6-16.8,7.3-24.5c3.8-7.7,8.6-14.9,14.4-21.5
					c5.8-6.7,12.4-12.4,19.7-17.1c4.1-2.7,8.9-5.2,14.3-7.6c5.4-2.4,11.1-4.2,17.1-5.4c6-1.2,12-1.7,18.1-1.5
					c6.1,0.2,11.9,1.5,17.4,3.7c2.2,1.1,4,2.4,5.5,4c1.5,1.6,3.2,3.4,5,5.3c1.2,1.1,2.7,2.4,4.5,4.2
					C2168.5-134.9,2169.9-133.2,2171-131.6z M2150-110.9c0.3-2.7-0.4-5.5-2.3-8.4c-1.9-2.9-4.1-5.5-6.8-7.8
					c-2.7-2.4-5.5-4.2-8.5-5.6c-3-1.4-5.3-2-6.9-1.9c-2.6,0.1-5.7,0.6-9.4,1.7c-3.7,1.1-7.4,2.6-11,4.5c-3.7,1.9-7.3,4-10.8,6.4
					c-3.5,2.4-6.4,4.8-8.5,7.2c-0.9,0.6-1.8,1.8-2.9,3.5c-1.1,1.7-1.5,3-1.2,4.1c1.9,5.4,6.2,9.3,13,11.6c6.5,2.3,14,3.1,22.6,2.6
					c8.5-0.5,15-1.9,19.3-4.2c0.5-0.5,1.5-1.2,2.9-2.3c1.5-1.1,2.9-2.3,4.4-3.7c1.4-1.4,2.8-2.8,4.1-4.3
					C2149.3-108.8,2150-110,2150-110.9z"/>
				<path class="st0" d="M2094.5-15.4c-3.4,0-6.8-0.2-10.1-0.5c-6.1-0.7-11.9-2.3-17.2-4.8c-3.8-2-6.6-4.2-8.7-6.6
					c-2-2.3-4.2-5.5-6.6-9.6c-1.1-1.9-2.6-3.9-4.3-6.1c-1.9-2.4-3.2-4.5-3.9-6.6c-2.4-9-3.1-18-1.9-26.9c1.1-8.8,3.7-17.2,7.5-25.1
					c3.8-7.8,8.8-15.2,14.7-21.9c5.9-6.8,12.7-12.6,20.1-17.4c4.1-2.7,9-5.3,14.5-7.7c5.5-2.4,11.4-4.3,17.4-5.5
					c6.1-1.3,12.3-1.8,18.5-1.6c6.3,0.2,12.3,1.5,18.1,3.8c2.5,1.2,4.5,2.7,6.1,4.5c1.5,1.6,3.1,3.4,5,5.3c1.1,1,2.6,2.4,4.4,4.1
					c1.9,1.8,3.4,3.6,4.5,5.4l0.1,0.2c1.3,2.8,2.4,5.7,3.3,8.8c0.9,3.1,1.5,6.2,1.7,9.2c0.4,6.4-0.3,12.4-2,17.8
					c-1.8,5.6-6.2,11.5-13.2,17.5c-7.7,6.4-16.5,11-26,13.8c-9.6,2.8-19.2,3.4-28.7,1.7c-6.8-1.1-13.2-3.4-19.2-6.9
					c-5.6-3.3-10.5-7.9-14.6-13.7c-1.4,0.8-2.8,2-4.1,3.6c-1.7,2.1-2.8,4.2-3.3,6.2c-0.8,3.9-0.8,8.5,0,13.8
					c0.7,5.1,2.1,8.9,4.1,11.3c3.6,3.2,10,5.5,18.8,6.8c9.1,1.3,19.1,1.9,29.9,1.7c10.8-0.1,21.9-0.7,32.7-1.8
					c11-1.1,20.4-2,28.2-2.7l2.9-0.3l-1,2.7c-0.8,2.3-1.9,3.6-3.4,4.2c-0.5,0.2-1.6,0.7-3.4,1.8c-2,1-4.1,2.1-6.5,3.5
					c-2.5,1.5-5.3,2.6-8.2,3.2c-3.1,0.6-5.7,1.9-7.8,3.9c-2.6,2.4-6.5,4.1-11.6,5.1c-6.4,1-12.8,2-19.3,3c-6.6,1-13,1.8-19.2,2.4
					C2100.1-15.5,2097.3-15.4,2094.5-15.4z M2131.6-152c-5,0-10,0.5-14.9,1.5c-5.8,1.2-11.4,3-16.7,5.3c-5.3,2.3-10,4.8-14,7.4
					c-7.2,4.6-13.7,10.2-19.3,16.7c-5.7,6.5-10.4,13.6-14.1,21.1c-3.7,7.5-6.1,15.5-7.2,23.9c-1.1,8.4-0.5,16.9,1.8,25.3
					c0.5,1.5,1.6,3.3,3.2,5.3c1.8,2.3,3.4,4.5,4.6,6.5c2.3,3.9,4.5,7,6.3,9.1c1.7,2.1,4.3,4,7.5,5.7c4.9,2.3,10.3,3.8,16,4.4
					c5.8,0.6,11.8,0.7,17.8,0.2c6.1-0.5,12.5-1.3,19-2.3c6.5-1,13-2,19.3-3c4.3-0.8,7.5-2.2,9.6-4.1c2.6-2.4,5.8-4,9.5-4.8
					c2.5-0.6,4.9-1.5,7.1-2.8c2.5-1.4,4.6-2.6,6.6-3.5c0.6-0.4,1.1-0.7,1.6-1c-6.7,0.6-14.3,1.4-22.8,2.2c-11,1.1-22.1,1.7-33,1.8
					c-11,0.1-21.2-0.5-30.5-1.8c-9.7-1.4-16.5-3.9-20.9-7.9c-2.6-3.1-4.3-7.6-5.1-13.4c-0.8-5.7-0.8-10.7,0.1-15.1
					c0.6-2.7,1.9-5.3,4-7.9c2.1-2.6,4.4-4.3,6.9-5.3l1.4-0.5l0.8,1.2c4,5.9,8.8,10.6,14.3,13.9c5.5,3.3,11.5,5.5,17.9,6.5
					c8.9,1.6,18,1,27-1.6c9-2.7,17.3-7.1,24.7-13.1c6.5-5.6,10.5-10.9,12.1-15.8c1.6-5,2.2-10.5,1.9-16.4c-0.2-2.8-0.8-5.6-1.6-8.5
					c-0.8-2.8-1.8-5.5-3.1-8.1c-0.9-1.5-2.2-3-3.8-4.6c-1.7-1.7-3.2-3.1-4.4-4.1c-2-2-3.7-3.8-5.2-5.5c-1.3-1.4-3-2.7-4.9-3.6
					c-5.2-2.1-10.9-3.3-16.7-3.5C2133.4-152,2132.5-152,2131.6-152z M2112.9-90.9c-6.9,0-13.2-1-18.7-2.9
					c-7.3-2.5-12.1-6.8-14.2-12.8c-0.5-1.7,0-3.5,1.4-5.7c1.1-1.8,2.2-3.1,3.2-3.9c2.2-2.5,5.1-5,8.7-7.4c3.6-2.4,7.3-4.7,11-6.6
					c3.8-1.9,7.6-3.5,11.4-4.6c3.9-1.1,7.1-1.7,9.9-1.8c1.9-0.1,4.4,0.6,7.7,2.1c3.2,1.4,6.2,3.4,9,5.9c2.8,2.4,5.1,5.2,7.1,8.2
					c2.1,3.2,2.9,6.4,2.6,9.5c-0.1,1.4-0.9,2.9-2.4,4.7c-1.3,1.5-2.7,2.9-4.2,4.4c-1.5,1.4-3,2.7-4.6,3.9c-1.8,1.3-2.5,1.8-2.7,2.1
					l-0.4,0.3c-4.6,2.5-11.1,3.9-20,4.4C2115.9-90.9,2114.4-90.9,2112.9-90.9z M2125.8-132.8c-0.1,0-0.1,0-0.2,0
					c-2.4,0.1-5.4,0.6-8.9,1.6c-3.6,1-7.2,2.5-10.7,4.3c-3.6,1.8-7.1,4-10.6,6.3c-3.4,2.3-6.1,4.6-8.1,6.9l-0.3,0.3
					c-0.5,0.3-1.2,1.1-2.4,3c-1.1,1.7-1,2.4-1,2.6c1.7,4.7,5.6,8.2,11.8,10.4c6.2,2.2,13.6,3,21.8,2.5c8.1-0.5,14.2-1.8,18.3-3.9
					c0.6-0.5,1.5-1.3,2.9-2.3c1.4-1,2.8-2.2,4.2-3.5c1.4-1.4,2.7-2.8,4-4.2c1.4-1.6,1.5-2.3,1.5-2.4l0-0.2c0.3-2.3-0.4-4.7-2-7.2
					c-1.8-2.7-3.9-5.2-6.4-7.4c-2.5-2.2-5.2-4-8-5.3C2128.5-132.4,2126.7-132.8,2125.8-132.8z"/>
			</g>
			<g>
				<path class="st0" d="M2195.4,86.6c1.7,0.6,3,1.4,3.9,2.3c0.6,0.9,1.1,2,1.2,3.3c0.2,1.3-0.6,3-2.2,4.9c-1.6,6.4-4,12.2-7.3,17.4
					c-3.2,5.2-6.8,10.3-10.8,15.2c-2.2,2.7-4.3,4.7-6.4,6.1c-2.1,1.3-4,2.4-5.9,3.2c-1.9,0.8-3.8,1.6-5.8,2.5c-2,0.9-4.1,2-6.2,3.5
					c-3.1,2.4-5.8,4.7-8.1,6.9c-2.3,2.2-5.3,3.4-8.9,3.8c4-6.8,7.4-12.8,10.2-17.8c2.9-5,5.4-10.3,7.7-15.8
					c2.1-5.3,3.7-10.2,4.7-14.7c1-4.6,1.6-8.4,2.1-11.4c-2.8-1-4.5-2.4-5-4.1c-0.5-1.8-0.4-3.6,0.3-5.6c0.7-2,1.8-3.9,3.4-5.7
					s3-3.1,4.2-4c0.5-1.4,1.5-2.9,3.2-4.3c1.6-1.5,3.8-1.9,6.4-1.3c1.8,0.3,3.5,1.2,5.2,2.8c1.7,1.5,3.5,3.1,5.5,4.7
					c1.7,1.5,3.2,3,4.6,4.5C2192.9,84.3,2194.2,85.5,2195.4,86.6z"/>
				<path class="st0" d="M2135.7,157.8l1.8-3.1c4-6.8,7.4-12.8,10.2-17.8c2.8-4.9,5.3-10.2,7.5-15.6c2.1-5.2,3.6-10,4.6-14.4
					c0.8-3.8,1.4-7.1,1.8-9.8c-2.6-1.2-4.1-2.8-4.7-4.8c-0.6-2.1-0.5-4.4,0.3-6.7c0.8-2.2,2-4.3,3.8-6.3c1.5-1.7,2.9-3,4.1-4
					c0.7-1.5,1.8-3,3.4-4.5c2.1-1.9,4.8-2.5,8.1-1.8c2,0.3,4.1,1.4,6,3.2c1.7,1.5,3.5,3.1,5.4,4.7c1.8,1.6,3.3,3.1,4.8,4.6
					c1.3,1.3,2.4,2.4,3.5,3.4c1.8,0.7,3.2,1.6,4.3,2.6c1,1.3,1.5,2.7,1.7,4.3c0.2,1.8-0.5,3.8-2.3,6c-1.6,6.4-4.1,12.3-7.4,17.5
					c-3.2,5.2-6.9,10.4-10.9,15.4c-2.3,2.9-4.6,5-6.8,6.5c-2.2,1.4-4.2,2.5-6.2,3.3c-1.9,0.8-3.8,1.6-5.8,2.5
					c-1.9,0.8-3.9,1.9-5.9,3.3c-2.9,2.3-5.6,4.6-7.9,6.7c-2.6,2.5-6,3.9-10,4.3L2135.7,157.8z M2174.1,72.5c-1.2,0-2.2,0.4-3,1.1
					c-1.4,1.3-2.3,2.5-2.7,3.6l-0.2,0.6l-0.5,0.3c-1.1,0.7-2.4,2-3.9,3.7c-1.4,1.6-2.4,3.3-3.1,5.1c-0.6,1.6-0.7,3.1-0.3,4.5
					c0.4,1.4,2.3,2.3,3.8,2.9l1.4,0.5l-0.2,1.5c-0.4,3-1.1,6.8-2.1,11.5c-1,4.6-2.6,9.7-4.8,15.1c-2.3,5.6-4.9,11-7.8,16
					c-2.3,4.1-5,8.8-8.1,14.1c1.5-0.6,2.8-1.4,3.9-2.4c2.4-2.2,5.1-4.6,8.2-7c2.3-1.6,4.5-2.9,6.6-3.8c2-0.9,4-1.7,5.8-2.5
					c1.7-0.7,3.6-1.7,5.6-3c1.9-1.2,3.9-3.2,6-5.7c3.9-4.9,7.5-10,10.6-15c3.1-5,5.5-10.7,7-16.9l0.4-0.7c1.7-2.1,1.8-3.1,1.8-3.5
					c-0.1-1-0.4-1.8-0.9-2.4c-0.6-0.6-1.7-1.2-3.1-1.7l-0.6-0.3c-1.3-1.1-2.6-2.4-4-3.8c-1.4-1.4-2.9-2.9-4.5-4.4
					c-1.9-1.6-3.8-3.2-5.5-4.7c-1.4-1.3-2.8-2.1-4.3-2.3C2175.3,72.6,2174.7,72.5,2174.1,72.5z"/>
			</g>
			<g>
				<path class="st0" d="M2614-50.1c-1.5,0.7-2.7,1-3.4,0.9c-0.8-0.1-1.8-0.1-3.1,0.1c-1.7,0.3-3.3,0.4-4.8,0.2
					c-1.5-0.2-3-0.4-4.5-0.6c-1.2-0.1-3,0.1-5.4,0.5c-2.4,0.4-4.6,0.5-6.7,0.1c-3.9-0.7-8.2-1.6-12.9-2.6c-4.7-1-9.7-2.1-15-3.3
					c0.3,18.1-0.3,36.7-1.9,55.8c-1.6,19.1-4.5,37-8.6,53.9c-4.2,16.9-9.9,31.9-17.1,45c-7.3,13.1-16.4,22.8-27.5,29.1
					c-13.5,7.9-29,9.8-46.5,5.6c-7.9-1.8-16.2-5.2-24.7-10c-8.6-4.9-16.6-10.3-24-16.2c-7.4-5.9-13.7-12-18.8-18.2
					c-5.1-6.2-8-11.6-8.6-16.3c-0.9-5.7,0.6-10.2,4.3-13.7c1.3-1.1,2.4-2.3,3.1-3.4c0.7-1.2,2-1.6,3.8-1.3c1.5,0.2,3.3,1.1,5.5,2.6
					c2.1,1.5,3.8,2.8,5,3.9l6.4,0.8c8.2,9.2,17.5,17.3,28.1,24.3c10.5,7,21.1,12,31.7,15.1c4.6,1.3,9.3,1.8,14.1,1.6
					c4.8-0.2,9.5-2.2,14-6c4.9-4.9,10.4-13.1,16.6-24.3c6.1-11.3,11.9-24.1,17.2-38.4c5.3-14.3,9.8-29.5,13.5-45.6
					c3.7-16.1,5.8-31.5,6.2-46.2c-8.9-2.5-17.6-5-26.1-7.4c-8.5-2.5-15.1-4.9-20-7.2c-4-2-7.9-4.2-11.5-6.6c-3.6-2.4-7-5.7-10.3-10
					c-2.1,1.5-4,2.7-5.6,3.7c-1.6,1-3,1.3-4.1,0.9c-2.3-2.4-3.7-5.5-4.1-9.3c-0.4-3.8-1-6.8-1.9-8.9c-0.5-1.1-0.4-2.6,0.6-4.3
					c0.9-1.7,2.8-2.2,5.8-1.5c2.8,0,9,0.9,18.5,2.7c9.5,1.7,20.3,4.2,32.3,7.5c12,3.2,24.2,7.2,36.7,11.8
					c12.4,4.7,23.3,10,32.6,16.1C2601.3-63.9,2608.3-57.5,2614-50.1z"/>
				<path class="st0" d="M2474.1,138.5c-5.7,0-11.7-0.7-17.9-2.2c-8-1.8-16.5-5.3-25.2-10.2c-8.6-4.9-16.8-10.4-24.2-16.4
					c-7.5-6-13.9-12.2-19.1-18.5c-5.4-6.5-8.3-12.2-9-17.2c-1-6.3,0.7-11.4,4.9-15.3c1.2-1,2.2-2,2.8-3c0.6-1,2.3-2.7,5.7-2.2
					c1.8,0.2,3.8,1.2,6.3,2.9c2,1.4,3.5,2.6,4.7,3.6l6.5,0.8l0.5,0.5c8,9,17.3,17.1,27.7,23.9c10.3,6.9,20.8,11.9,31.2,14.9
					c4.4,1.2,8.9,1.7,13.5,1.5c4.4-0.2,8.7-2.1,12.8-5.6c4.6-4.7,10.1-12.7,16.1-23.8c6.1-11.2,11.8-24,17.1-38.1
					c5.2-14.1,9.8-29.4,13.4-45.3c3.5-15.4,5.6-30.3,6.1-44.4c-8.5-2.4-16.7-4.7-24.7-7.1c-8.7-2.5-15.3-4.9-20.3-7.3
					c-4.1-2.1-8-4.3-11.7-6.7c-3.4-2.2-6.6-5.2-9.6-9c-1.5,1.1-2.9,2-4.2,2.8c-2.1,1.3-4.1,1.7-5.7,1.1l-0.4-0.1l-0.3-0.3
					c-2.6-2.7-4.2-6.2-4.6-10.4c-0.4-3.6-1-6.5-1.8-8.5c-0.8-1.5-0.6-3.6,0.7-5.8c0.9-1.7,3-3.6,7.6-2.5c3,0.1,9.1,1,18.6,2.7
					c9.5,1.7,20.5,4.3,32.4,7.5c11.9,3.2,24.3,7.2,36.8,11.9c12.5,4.7,23.6,10.2,32.9,16.3c8.6,5.6,15.9,12.2,21.7,19.7l1.4,1.8
					l-2.1,1c-1.9,0.9-3.3,1.3-4.5,1.1c-0.4-0.1-1.2-0.1-2.6,0.1c-1.8,0.4-3.6,0.4-5.3,0.2l-4.5-0.6c-0.6-0.1-2.1,0-4.8,0.5
					c-2.6,0.5-5.1,0.5-7.4,0c-3.9-0.7-8.2-1.6-12.9-2.6c-4-0.9-8.2-1.8-12.7-2.8c0.2,17.3-0.4,35.4-1.9,53.6
					c-1.6,19.1-4.5,37.3-8.6,54.2c-4.2,17-10,32.3-17.3,45.5c-7.4,13.4-16.9,23.4-28.2,29.8C2495,135.9,2485,138.5,2474.1,138.5z
					 M2390.7,57.2c-0.8,0-1,0.3-1.1,0.5c-0.8,1.4-2,2.7-3.5,3.9c-3.2,3-4.4,6.9-3.6,12c0.5,4.3,3.3,9.5,8.2,15.4
					c5,6.1,11.2,12.1,18.5,17.9c7.3,5.8,15.3,11.2,23.8,16c8.4,4.8,16.5,8.1,24.2,9.8c17,4.1,32.1,2.3,45.2-5.4
					c10.7-6.1,19.7-15.6,26.8-28.4c7.1-12.9,12.8-27.9,16.9-44.6c4.1-16.7,7-34.8,8.6-53.6c1.6-18.9,2.2-37.6,1.9-55.6l0-2.4
					l2.3,0.5c5.3,1.2,10.2,2.3,14.9,3.3c4.7,1,8.9,1.9,12.8,2.6c1.9,0.4,3.9,0.3,6,0c2.6-0.5,4.5-0.6,5.9-0.5l4.6,0.6
					c1.3,0.2,2.7,0.1,4.2-0.2c1.6-0.2,2.8-0.3,3.7-0.1c0,0,0,0,0.1,0c0,0,0,0,0,0c-5.2-6.3-11.7-12-19.2-16.8
					c-9.1-6-19.9-11.3-32.2-15.9c-12.4-4.6-24.7-8.6-36.5-11.8c-11.9-3.2-22.7-5.7-32.1-7.4c-9.4-1.7-15.5-2.6-18.2-2.6l-0.4-0.1
					c-3-0.7-3.5,0.3-3.7,0.6c-0.4,0.8-0.9,1.9-0.5,2.6c0.9,2.5,1.6,5.6,2,9.5c0.4,3.2,1.4,5.7,3.2,7.8c0.6,0,1.3-0.3,2.2-0.8
					c1.6-1,3.4-2.2,5.5-3.7l1.5-1l1.1,1.4c3.1,4.1,6.4,7.3,9.8,9.5c3.5,2.3,7.3,4.5,11.3,6.5c4.7,2.2,11.3,4.6,19.7,7.1
					c8.4,2.5,17.1,5,26.1,7.4l1.4,0.4l0,1.5c-0.4,14.8-2.5,30.5-6.2,46.6c-3.7,16.1-8.3,31.5-13.6,45.8
					c-5.3,14.3-11.1,27.3-17.3,38.6c-6.2,11.4-11.9,19.7-16.9,24.8c-4.9,4.2-10,6.4-15.2,6.6c-5,0.2-10-0.3-14.7-1.7
					c-10.8-3.1-21.6-8.3-32.3-15.3c-10.4-6.9-19.8-15-28-24l-6.2-0.8l-0.4-0.4c-1.2-1-2.8-2.3-4.9-3.8c-2.4-1.7-3.8-2.2-4.7-2.3
					C2391.2,57.2,2390.9,57.2,2390.7,57.2z"/>
			</g>
			<g>
				<path class="st0" d="M2716.2,64.7c0.5,10.3,0.6,21.2,0.2,32.8c-0.4,11.6-1.8,22.7-4.1,33.4c-2.3,10.7-5.8,20.7-10.4,29.8
					c-4.6,9.1-10.8,16.3-18.6,21.5c-3.2,2-6.3,2.2-9.2,0.6c-1-0.7-1.8-1.7-2.2-3.1c-0.5-1.4-1.2-2.8-2.4-4.1
					c-0.8-1.2-1.8-2.4-2.9-3.4c-1.1-1-1.9-2.6-2.4-4.6c-4.7-0.1-9.6,0.5-14.6,1.8c-5,1.3-10.1,2.6-15.4,3.9
					c-5.2,1.3-10.5,2.6-16,3.7c-5.4,1.1-10.8,1.4-15.9,0.8c-5.6-0.4-9.2-1.9-11-4.5c-1.8-2.7-3.7-5.6-5.7-8.9
					c-1.4-2.4-2.3-3.9-2.7-4.5c-0.4-0.6-0.4-2.6,0.1-5.9c1.3-6.5,3.6-13.2,6.8-20.2c3.2-6.9,7.4-13.6,12.5-20.1
					c14.5-19,33.9-28.3,58.2-28.1c2.8,0,5.5,0.7,8,2.1c2.5,1.4,4.9,3,7,5.1c2.1,2,4.1,4.3,5.9,6.8c1.8,2.5,3.4,5,4.8,7.4l4.8,7.9
					c3.1-4.3,4.8-9.5,5.2-15.5c0.4-6-0.1-12.1-1.5-18.1c-1.4-6-3.4-11.7-5.9-17c-2.6-5.3-5.4-9.3-8.6-12c-14.4-5-28.4-6.2-42.2-3.5
					c-13.7,2.6-27.8,7.5-42.3,14.4c-0.8,0.4-1.5,0.6-2.3,0.6c-0.8,0-1.5,0.1-2.2,0.2c-1,0.3-2.1,0.1-3.1-0.6
					c-0.8-0.6-0.6-1.5,0.5-2.7c4.8-8.4,11-15.4,18.6-20.8c7.6-5.4,15.7-9.6,24.3-12.6c8.6-3,17.4-5,26.3-6c8.9-1,17.3-1.1,25.2-0.2
					c1.3-0.2,2.5-0.1,3.5,0c1,0.2,2.3,0.6,3.7,1c2,0.7,3.6,1.9,4.9,3.6c1.3,1.7,2.8,3.7,4.6,5.9c2.3,2.4,4.6,5,6.8,7.8
					c2.2,2.8,4,5.9,5.3,9.2c1.2,2.9,2.1,5.8,2.7,8.5C2715.3,59.8,2715.8,62.3,2716.2,64.7z M2675.6,135c-0.4-4.2-1.8-8.5-4.3-12.9
					c-2.4-4.3-5.7-8.1-9.6-11.2c-4-3.1-8.7-5.2-14.2-6.1c-5.5-1-11.7-0.3-18.5,2.1c-3,3.1-6.1,6.5-9.3,10.3c-3.2,3.8-6,7.7-8.4,11.8
					c-2.4,4.1-4.3,8.3-5.6,12.7c-1.4,4.4-1.9,8.8-1.5,13c12,0.1,23.9-0.5,35.7-1.8c11.8-1.3,22-2.4,30.6-3.5
					c2.3-1.1,3.8-2.2,4.4-3.2c0.7-1,0.9-2,0.8-3c-0.1-1-0.3-2.2-0.7-3.6C2674.9,138.2,2675,136.7,2675.6,135z"/>
				<path class="st0" d="M2678.1,185.8c-1.7,0-3.3-0.4-4.9-1.3c-1.5-1-2.5-2.4-3.1-4.2c-0.4-1.2-1.1-2.4-2-3.5
					c-0.9-1.3-1.7-2.3-2.7-3.2c-1.1-1-1.9-2.4-2.5-4.1c-4.1,0.1-8.4,0.6-12.8,1.7c-5,1.3-10.1,2.6-15.3,3.9
					c-5.1,1.3-10.5,2.6-16.1,3.7c-5.6,1.1-11.2,1.4-16.5,0.9c-6.1-0.4-10.3-2.2-12.3-5.4c-1.8-2.7-3.7-5.6-5.7-8.9
					c-1.4-2.4-2.3-3.8-2.7-4.4c-0.6-0.9-0.9-2.5-0.1-7.2c1.4-6.7,3.7-13.6,6.9-20.7c3.2-7,7.5-13.9,12.7-20.5
					c14.6-19.1,34.4-28.8,58.8-28.8c0.3,0,0.6,0,0.9,0c3.1,0,6.1,0.8,8.9,2.3c2.6,1.4,5.1,3.2,7.4,5.3c2.2,2.1,4.3,4.5,6.2,7.1
					c1.8,2.6,3.5,5.1,4.9,7.5l3.3,5.3c1.9-3.5,3-7.5,3.3-12.1c0.3-5.8-0.1-11.7-1.5-17.6c-1.4-5.9-3.3-11.5-5.8-16.6
					c-2.4-4.9-5-8.7-7.9-11.2c-13.9-4.8-27.6-5.9-40.9-3.4c-13.5,2.6-27.6,7.4-41.8,14.3c-1,0.5-2,0.7-3.1,0.8
					c-0.8,0-1.4,0.1-2.1,0.2c-1.3,0.4-2.9,0.1-4.4-0.9c-0.8-0.6-1.2-1.3-1.3-2.1c-0.1-1.1,0.3-2.1,1.4-3.3
					c4.7-8.3,11.2-15.5,19-21.1c7.7-5.5,16-9.8,24.8-12.9c8.7-3,17.7-5.1,26.7-6.1c8.9-1,17.5-1.1,25.4-0.2c1.4-0.2,2.7-0.1,3.9,0.1
					c1.1,0.2,2.5,0.6,3.9,1.1c2.3,0.8,4.3,2.2,5.8,4.2c1.3,1.7,2.8,3.7,4.6,5.8c2.3,2.3,4.6,5,6.8,7.8c2.3,3,4.2,6.2,5.6,9.6
					c1.2,3,2.2,6,2.8,8.8c0.6,2.8,1.2,5.4,1.6,7.7l0,0.3c0.5,10.4,0.6,21.4,0.2,32.9c-0.4,11.7-1.8,23-4.1,33.8
					c-2.3,10.8-5.9,21-10.6,30.3c-4.7,9.4-11.2,16.9-19.3,22.2C2682.3,185.1,2680.1,185.8,2678.1,185.8z M2663.6,165.7
					c0.2,0,0.4,0,0.6,0l1.4,0l0.4,1.4c0.4,1.7,1.1,3,1.9,3.7c1.2,1.1,2.2,2.4,3.1,3.7c1.1,1.4,2,3,2.6,4.6c0.3,1,0.8,1.7,1.5,2.1
					c2.2,1.2,4.5,1.1,7.2-0.6c7.5-5,13.5-11.9,18-20.7c4.5-9,8-18.8,10.2-29.4c2.3-10.5,3.6-21.7,4-33.1c0.4-11.4,0.3-22.3-0.2-32.5
					c-0.4-2.3-1-4.8-1.6-7.5c-0.6-2.6-1.5-5.4-2.6-8.3c-1.3-3.1-3-6.1-5.1-8.8c-2.1-2.7-4.3-5.3-6.6-7.7c-1.9-2.3-3.4-4.3-4.7-6
					c-1.1-1.4-2.4-2.4-4-3c-1.3-0.5-2.5-0.8-3.4-1c-0.8-0.2-1.8-0.2-2.9,0l-0.2,0l-0.2,0c-7.7-0.8-16.1-0.8-24.8,0.2
					c-8.7,1-17.4,3-25.9,5.9c-8.4,2.9-16.5,7.1-23.9,12.4c-7.3,5.2-13.4,12-18.1,20.2c-0.2,0.2-0.3,0.4-0.4,0.5c0.4,0.1,0.7,0.1,1,0
					c1-0.1,1.7-0.2,2.6-0.2c0.5,0,1.1-0.2,1.6-0.4c14.5-7,28.9-11.9,42.7-14.6c14-2.7,28.5-1.5,43.1,3.6l0.6,0.3
					c3.4,2.9,6.4,7.1,9.1,12.6c2.6,5.4,4.6,11.3,6.1,17.4c1.4,6.2,1.9,12.4,1.6,18.6c-0.4,6.4-2.2,11.9-5.5,16.5l-1.6,2.3l-6.3-10.2
					c-1.4-2.4-3-4.8-4.7-7.3c-1.7-2.4-3.6-4.6-5.7-6.5c-2-1.9-4.2-3.5-6.6-4.8c-2.3-1.2-4.7-1.8-7.2-1.9c-23.4-0.3-42.6,9-56.7,27.4
					c-5,6.3-9.1,13-12.2,19.7c-3.1,6.8-5.4,13.4-6.7,19.8c-0.6,3.7-0.4,4.6-0.3,4.6c0.3,0.5,1.3,2,2.7,4.4c2,3.2,3.9,6.1,5.6,8.8
					c1.4,2.1,4.6,3.4,9.5,3.7c5,0.5,10.2,0.3,15.5-0.8c5.5-1.1,10.9-2.4,15.9-3.7c5.2-1.3,10.3-2.6,15.4-3.9
					C2654.1,166.3,2659,165.7,2663.6,165.7z M2606.2,156.5c-0.7,0-1.3,0-2,0l-1.7,0l-0.2-1.7c-0.4-4.5,0.1-9.1,1.5-13.8
					c1.4-4.5,3.4-8.9,5.8-13.1c2.4-4.1,5.3-8.2,8.6-12.1c3.2-3.8,6.4-7.3,9.4-10.4l0.3-0.3l0.4-0.1c7.1-2.5,13.7-3.2,19.4-2.2
					c5.8,1,10.8,3.2,15,6.5c4.1,3.3,7.5,7.2,10.1,11.7c2.6,4.5,4.1,9.1,4.5,13.6l0,0.4l-0.1,0.4c-0.5,1.4-0.6,2.6-0.4,3.6
					c0.3,1.5,0.6,2.7,0.7,3.7c0.2,1.4-0.2,2.9-1.1,4.3c-0.9,1.3-2.6,2.6-5.2,3.9l-0.6,0.2c-8.7,1.1-19,2.3-30.7,3.5
					C2629,155.9,2617.6,156.5,2606.2,156.5z M2606,152.8c0.1,0,0.1,0,0.2,0c11.2,0,22.5-0.6,33.6-1.8c11.5-1.2,21.7-2.4,30.3-3.5
					c2.4-1.2,3.2-2,3.4-2.4c0.4-0.7,0.6-1.2,0.5-1.8c-0.1-1-0.3-2.1-0.6-3.4c-0.4-1.6-0.2-3.3,0.3-5.2c-0.4-3.8-1.8-7.8-4-11.8
					c-2.3-4.1-5.4-7.7-9.2-10.6c-3.7-2.9-8.2-4.9-13.4-5.8c-5.1-0.9-10.8-0.3-17.2,1.9c-2.8,3-5.8,6.3-8.9,9.9
					c-3.1,3.7-5.9,7.6-8.2,11.5c-2.3,3.9-4.1,8.1-5.5,12.4C2606.4,145.8,2605.9,149.3,2606,152.8z"/>
			</g>
			<g>
				<path class="st0" d="M2769.8,158.8c6.5-3.1,13.1-6.6,20-10.3c6.8-3.8,13.8-7.3,21-10.5c7.1-3.2,14.2-5.9,21.3-8
					c7.1-2.1,14.1-3.4,21.2-3.7c1.6-0.1,3,0.3,4.2,1c1.2,0.7,2.6,1,4.2,1c2.3,0.8,4.2,1.5,5.9,2.1c1.7,0.6,3,1.7,4.1,3.3
					c3.1,3.9,5,8.6,5.8,14.1c0.8,5.5,1,11.3,0.8,17.6c0,3.5-0.4,6.7-1.2,9.5c-0.8,2.9-1.2,6.4-1.1,10.5c-0.2,5.9-0.2,12,0,18.3
					c0.2,6.2-0.9,11.8-3.2,16.7c-0.8,1.3-1.6,2.4-2.5,3.2c-0.9,0.8-2,1.7-3.4,2.9c-1,0.9-2.4,2-4.4,3.2c-2,1.2-3.9,2-5.6,2.3
					c-1.8,0.6-3,1.2-3.7,1.8c-0.7,0.6-2.3,0.9-4.8,0.9c-1.8-6.6-2.6-13.4-2.4-20.3c0.2-6.9,0.8-14,1.7-21.2c0.9-7.3,2.1-14.6,3.4-22
					c1.3-7.4,2.4-15.1,3.3-23c0.1-2.2-1.2-3.9-4.1-5.2c-2.9-1.3-6.6-1.6-11.1-0.8c-4.5,0.8-9.7,2.7-15.5,5.7
					c-5.8,3-11.6,7.5-17.5,13.4c-4,4.3-8,8.8-11.9,13.6c-3.9,4.8-8,9.5-12.3,14.2c-4.3,4.7-9,9-14.1,13.1
					c-5.1,4.1-10.6,7.5-16.6,10.1c-1.9,0.9-2.9,0.7-3.1-0.6c-0.2-1.3-1.2-2.8-3.2-4.4c-1.5-1.2-2.2-2-2.2-2.6
					c0.1-0.6,0.2-2.5,0.3-5.6c0.4-6.5,1-13.9,1.8-22.1c0.8-8.3,1.6-17,2.5-26.2c0.8-9.2,1.6-18.5,2.4-27.9
					c0.7-9.4,1.3-18.3,1.7-26.7l0.1-8.5c1-0.9,2.4-1.5,4.2-1.9c1.8-0.3,3.7-0.4,5.6-0.4c1.9,0,3.7,0.8,5.4,2.3
					c1.7,1.5,3.1,2.5,4.2,2.9c3.1,1.1,5.2,4,6.2,8.8c1,4.8,1.3,10.5,0.9,17.1c-0.4,6.7-1.4,13.7-2.9,21.3
					C2773.5,145.1,2771.7,152.2,2769.8,158.8z"/>
				<path class="st0" d="M2846.8,236.4l-0.4-1.4c-1.8-6.8-2.7-13.8-2.5-20.8c0.2-6.9,0.8-14.1,1.7-21.4c0.9-7.2,2.1-14.7,3.4-22.1
					c1.3-7.4,2.4-15.1,3.3-22.9c0-0.4,0.1-1.9-3-3.3c-2.5-1.1-5.9-1.4-10-0.6c-4.3,0.8-9.4,2.6-15,5.6c-5.6,2.9-11.3,7.3-17,13
					c-3.9,4.2-7.9,8.8-11.7,13.5c-3.9,4.8-8,9.6-12.4,14.3c-4.4,4.7-9.2,9.2-14.3,13.3c-5.2,4.2-10.9,7.6-17,10.4
					c-0.6,0.3-2.5,1.2-4.2,0.4c-0.5-0.3-1.4-0.9-1.6-2.4c0-0.4-0.4-1.5-2.5-3.2c-1.5-1.1-3-2.5-2.8-4.3c0.1-0.6,0.1-2.4,0.3-5.5
					c0.4-6.6,1-14.1,1.8-22.2c0.8-8.2,1.6-17,2.5-26.2c0.8-9.2,1.6-18.5,2.4-27.9c0.7-9.4,1.3-18.4,1.7-26.6l0.1-9.2l0.6-0.5
					c1.2-1.2,3-2,5.2-2.4c1.9-0.3,3.8-0.4,5.9-0.4c2.4,0,4.6,1,6.6,2.8c1.8,1.7,3,2.3,3.6,2.5c3.7,1.3,6.2,4.7,7.4,10.2
					c1,4.9,1.4,10.9,0.9,17.7c-0.4,6.7-1.4,13.9-2.9,21.5c-1.2,6-2.6,11.8-4.1,17.3c5.2-2.6,10.6-5.4,16.1-8.5
					c6.9-3.8,14-7.3,21.1-10.5c7.1-3.2,14.4-5.9,21.5-8.1c7.2-2.2,14.5-3.4,21.7-3.8c2-0.1,3.7,0.3,5.2,1.3c0.9,0.5,1.9,0.7,3.1,0.7
					l0.4,0l6.3,2.2c2.1,0.7,3.8,2.1,5,4.1c3.1,4,5.2,9,6,14.8c0.8,5.6,1,11.6,0.8,17.9c0,3.6-0.4,7-1.3,10c-0.8,2.7-1.1,6-1,9.9
					c-0.2,6-0.2,12.1,0,18.3c0.2,6.5-0.9,12.4-3.4,17.5c-0.9,1.6-1.9,2.8-3,3.8c-0.9,0.8-2.1,1.8-3.4,2.9c-1,1-2.5,2.1-4.7,3.4
					c-2.2,1.3-4.2,2.2-6.1,2.6c-1.8,0.7-2.6,1.2-2.9,1.4c-1,0.9-2.8,1.3-6,1.4L2846.8,236.4z M2843.7,139.6c2.7,0,5.1,0.5,7.2,1.4
					c4.5,2.1,5.3,5,5.2,7c-0.9,8-2,15.8-3.3,23.3c-1.3,7.4-2.5,14.8-3.4,22c-0.9,7.2-1.5,14.3-1.7,21c-0.2,6.2,0.5,12.3,2,18.3
					c1.8-0.1,2.2-0.4,2.2-0.4c0.9-0.7,2.3-1.4,4.3-2.1c1.7-0.4,3.4-1.1,5.2-2.2c1.9-1.1,3.2-2.1,4.1-2.9c1.4-1.2,2.5-2.1,3.4-2.9
					c0.8-0.7,1.5-1.6,2.1-2.7c2.1-4.4,3.1-9.8,2.9-15.7c-0.2-6.2-0.2-12.4,0-18.4c-0.1-4.2,0.2-8,1.1-11c0.8-2.7,1.2-5.7,1.1-9
					c0.3-6.2,0-12-0.7-17.3c-0.7-5.1-2.5-9.6-5.4-13.2c-0.9-1.4-1.9-2.3-3.2-2.7l-5.6-2c-1.8,0.1-3.5-0.4-4.9-1.3
					c-0.8-0.5-1.8-0.7-3.1-0.7c-6.9,0.4-13.9,1.6-20.8,3.7c-7,2.1-14.1,4.8-21.1,7.9c-7.1,3.2-14.1,6.7-20.8,10.4
					c-6.9,3.8-13.6,7.3-20.1,10.4l-3.8,1.8l1.2-4.1c1.9-6.5,3.7-13.6,5.2-21c1.5-7.5,2.5-14.5,2.9-21c0.4-6.4,0.1-12-0.9-16.6
					c-0.9-4.1-2.5-6.6-5-7.4c-1.4-0.5-3-1.5-4.9-3.3c-1.3-1.2-2.7-1.8-4.1-1.9c-1.8,0-3.6,0.1-5.3,0.4c-1.1,0.2-2,0.5-2.7,0.9
					l-0.1,7.6c-0.4,8.4-1,17.4-1.7,26.8c-0.7,9.4-1.5,18.7-2.4,27.9c-0.8,9.2-1.7,17.9-2.5,26.2c-0.8,8.1-1.4,15.5-1.8,22.1
					c-0.1,2.7-0.2,4.5-0.3,5.4c0.1,0.2,0.5,0.6,1.4,1.3c2.2,1.8,3.4,3.5,3.8,5.1c0.1-0.1,0.3-0.1,0.6-0.2c5.9-2.6,11.3-5.9,16.2-9.9
					c5-4,9.6-8.4,13.9-12.9c4.3-4.6,8.4-9.4,12.2-14.1c3.9-4.8,7.9-9.4,12-13.8c6-6,12-10.6,18-13.7c6-3.1,11.4-5.1,16.1-5.9
					C2840.4,139.7,2842.1,139.6,2843.7,139.6z M2744.6,204.5C2744.6,204.5,2744.6,204.5,2744.6,204.5
					C2744.6,204.5,2744.6,204.5,2744.6,204.5z"/>
			</g>
		</g>
		<g>
			<g>
				<g>
					<path class="st0" d="M2319.4,252c-13.9,46.3-37.3,90.9-68.7,132.2c-31.2,41.2-71.5,78.9-118.1,111.1
						c-93.2,64.9-213.9,107.2-340.3,120.5l0.3,1.4c48.5-1,96.9-8.1,143.2-19.2c203.7-48.4,361.6-187.7,385.5-345.7L2319.4,252z"/>
					<path class="st0" d="M1791,619.1l-0.9-5l2-0.2c126.9-13.4,247.4-56.1,339.5-120.2c47.2-32.6,86.7-69.9,117.6-110.7
						c31.7-41.7,54.7-85.9,68.4-131.6l0.5-1.6l5.4,0.9l-0.3,1.8c-11.8,77.7-55.3,152-126,215.1c-70.1,62.6-160.3,108.3-261,132.2
						c-49,11.8-97.3,18.2-143.6,19.3L1791,619.1z M2317.1,265.1c-14.1,41.6-35.9,82-65,120.2c-31.1,41.1-71,78.6-118.5,111.5
						c-85.4,59.5-195.3,100.7-311.9,117.2c36.9-2.6,75-8.6,113.5-17.8c100-23.8,189.7-69.2,259.3-131.3
						C2260.7,406,2302.8,337.1,2317.1,265.1z"/>
				</g>
				<g>
					<path class="st0" d="M1789.5,621l-1.6-8.5l4-0.4c126.6-13.4,246.8-56,338.6-119.9c47-32.5,86.4-69.6,117.2-110.3
						c31.6-41.5,54.5-85.6,68.1-131l0.9-3.1l8.8,1.4l-0.6,3.7c-11.8,78.1-55.6,152.8-126.6,216.2
						c-70.3,62.8-160.8,108.6-261.8,132.6c-49.2,11.8-97.6,18.3-144,19.3L1789.5,621z M2307.5,295.3c-13.6,31.4-31.6,61.9-53.8,91.1
						c-31.3,41.3-71.3,78.9-118.9,111.9c-70.9,49.4-158.5,86.2-252.9,106.8c17.5-2.9,35.3-6.4,53.1-10.7
						c99.7-23.7,189.1-69,258.5-130.9C2249.7,413.3,2288.5,355.8,2307.5,295.3z"/>
					<path class="st0" d="M1787.9,622.9l-2.3-12.1l6-0.6c126.3-13.3,246.2-55.8,337.7-119.6c46.8-32.4,86.1-69.4,116.8-109.9
						c31.4-41.3,54.2-85.2,67.8-130.4l1.4-4.7l12.2,2l-0.8,5.5c-11.9,78.5-55.9,153.7-127.2,217.3c-70.6,63-161.4,109-262.6,133
						c-49.3,11.8-97.9,18.3-144.4,19.4L1787.9,622.9z M1790.1,614.1l0.9,5l1.6,0c46.2-1,94.5-7.5,143.6-19.3
						c100.6-23.9,190.9-69.6,261-132.2c70.6-63.1,114.2-137.4,126-215.1l0.3-1.8l-5.4-0.9l-0.5,1.6c-13.7,45.6-36.7,89.9-68.4,131.6
						c-30.9,40.8-70.5,78-117.6,110.7c-92,64.1-212.6,106.8-339.5,120.2L1790.1,614.1z M1882.1,607l-0.7-3.7
						c94.7-20.7,182-57.5,252.3-106.5c47.5-32.9,87.3-70.4,118.5-111.5c22.1-29,40.1-59.5,53.6-90.7l3.5,1.3
						c-19,60.6-58.6,119-114.6,169c-69.6,62.1-159.3,107.6-259.4,131.3C1917.5,600.5,1899.6,604.1,1882.1,607z M2290.3,334.1
						c-10.2,18.2-22,36.1-35.2,53.5c-31.4,41.4-71.5,79.2-119.3,112.3c-51.9,36.2-113.1,65.8-179.6,87.2
						c90.7-24.8,171.9-67.7,236-124.9C2235.4,423.5,2268.8,379.8,2290.3,334.1z"/>
				</g>
			</g>
			<g>
				<g>
					<path class="st0" d="M1788.2,618.5c-8.7-2.8-18.3-6-26.5-9.5c29.6-13.3,56.3-31.2,73.6-53.3l-1.4-1
						c-18.9,13.5-39.6,25.6-62.2,35.5c-8.2,3.6-17.5,7.1-26.1,10.1c-15.4,4.9-11.9,12-0.2,18.1c16.5,8.4,35.5,13.4,54.1,18.6
						c37.2,9.9,75.2,18.1,113.5,25.5l0.5-1.4c-23.5-10.2-47.7-18.1-71.7-25.9C1823.8,629.5,1805.9,624.3,1788.2,618.5z
						 M1750.6,613.9c0.1-0.1,0.1-0.1,0.3-0.2c0.1-0.1,0.3-0.1,0.4-0.2C1750.9,613.7,1750.7,613.8,1750.6,613.9
						C1750.6,613.9,1750.5,613.9,1750.6,613.9z"/>
					<path class="st0" d="M1914.1,664.7l-1.6-0.3c-44.9-8.8-81-16.9-113.6-25.5l-4.1-1.1c-17.1-4.8-34.9-9.7-50.3-17.6
						c-7.7-4-11.4-8.1-11-12.3c0.3-3.9,4.1-6.9,11.6-9.3c10.2-3.6,18.9-7,25.9-10.1c21-9.2,41.9-21.1,61.9-35.3l1.1-0.8l4,3
						l-1.2,1.5c-15.6,19.9-39.9,37.8-70.4,52.1c7.1,2.8,15,5.4,22.1,7.7l-0.2,1.9l0.6-1.8c9.5,3.1,19,6,28.5,9
						c8.3,2.6,16.6,5.1,25,7.8c24.5,7.9,48.3,15.7,71.9,25.9l1.6,0.7L1914.1,664.7z M1828.9,560.4c-18.3,12.5-37.3,23.1-56.5,31.5
						c-7.1,3.1-16,6.6-26.3,10.2c-5.6,1.8-8.8,4-9,6.1c-0.2,2.3,3.2,5.6,9,8.6c15.1,7.7,32.7,12.6,49.6,17.3l4.1,1.1
						c29.8,7.9,62.7,15.4,102.5,23.4c-20.1-8.1-40.5-14.8-61.3-21.5c-8.3-2.7-16.6-5.2-24.9-7.8c-9.6-3-19.1-5.9-28.6-9h0l0.6-1.8
						l-0.9,1.7c-8.5-2.8-18.2-5.9-26.4-9.4l-1.9-0.8l-6.6,5c-0.4,0.3-0.8,0.5-1.2,0.7l-0.4,0.1l-1.5-0.1l-0.9-2.1l1.9-1.7l11-4.7
						C1789.9,594.3,1813.1,578.2,1828.9,560.4z M1751.9,615l0.1,0.1L1751.9,615z"/>
				</g>
				<g>
					<path class="st0" d="M1915.3,666.8l-3.1-0.6c-45-8.8-81.1-16.9-113.7-25.6l-4.1-1.1c-17.2-4.8-35-9.7-50.7-17.7
						c-8.4-4.4-12.5-9.1-12-14.1c0.6-7,9.8-9.9,12.9-10.9c10.1-3.5,18.7-6.9,25.7-10c21-9.2,41.7-21,61.5-35.1l2.2-1.6l6.6,5l-2.3,3
						c-15.1,19.2-38.2,36.7-67.1,50.7c5.9,2.2,12.2,4.2,17.9,6.1l-0.8,3.7l1.2-3.5c9.5,3.1,19,6,28.5,8.9c8.3,2.6,16.7,5.1,25,7.8
						c24.5,7.9,48.4,15.8,72.1,26l3.3,1.4L1915.3,666.8z M1751.9,617.4c13.8,6.3,29.4,10.7,44.5,14.9l4.1,1.1
						c24,6.4,49.9,12.5,79.9,18.7c-13.1-4.7-26.3-9-39.8-13.3c-8.3-2.7-16.6-5.2-24.9-7.8c-9.6-3-19.1-5.9-28.6-9h0l1.2-3.5
						l-1.5,3.4c-8.6-2.8-18.3-5.9-26.5-9.5l-0.9-0.4l-5.8,4.4C1752.9,616.9,1752.4,617.2,1751.9,617.4L1751.9,617.4z M1751.9,615
						l1.5,1.3L1751.9,615z M1814.6,571.9c-13.6,8.3-27.4,15.6-41.3,21.7c-7.2,3.2-16,6.6-26.4,10.2c-6.3,2-7.7,3.9-7.8,4.5
						c-0.1,0.6,1.3,3.3,7.9,6.8l-0.8-1.8l3.2-3l10.7-4.6C1781.6,596,1800.1,584.6,1814.6,571.9z"/>
					<path class="st0" d="M1916.5,668.9l-4.7-0.9c-45-8.8-81.2-16.9-113.8-25.6l-4.1-1.2c-17.3-4.8-35.2-9.8-51-17.9
						c-9.2-4.8-13.6-10.2-13.1-15.9c0.7-8.3,10.8-11.5,14.2-12.5c10-3.5,18.6-6.8,25.5-9.9c20.8-9.1,41.4-20.9,61.2-35l3.3-2.4
						l9.2,6.9l-3.5,4.5c-14.5,18.5-36.5,35.5-63.9,49.3c4.3,1.5,8.8,3,12.8,4.3l1.2,0.4c9.4,3.1,18.9,6,28.5,8.9
						c8.3,2.6,16.7,5.1,25,7.8c24.5,7.9,48.5,15.8,72.2,26l4.9,2.1L1916.5,668.9z M1834,552.4l-1.1,0.8
						c-20,14.2-40.8,26.1-61.9,35.3c-7,3.1-15.7,6.5-25.9,10c-2.8,0.9-11.1,3.5-11.6,9.3c-0.4,4.1,3.4,8.3,11.1,12.3
						c15.4,7.9,33.1,12.8,50.3,17.6l4.2,1.2c32.6,8.7,68.7,16.8,113.6,25.5l1.6,0.3l1.7-4.5l-1.6-0.7
						c-23.5-10.2-47.4-18.1-71.9-25.9c-8.3-2.7-16.7-5.2-25-7.8c-8.9-2.8-17.9-5.5-26.7-8.4l-0.6,1.8l0,0l0,0l-0.6,1.8
						c8.7,2.8,17.5,5.5,26.3,8.2l1.2,0.4c8.1,2.5,16.1,5,24.2,7.6c14.9,4.8,27.4,8.9,39.8,13.4l-1,3.6c-29.8-6.2-56-12.4-80-18.8
						l-4.1-1.1c-15.1-4.2-30.8-8.6-44.8-15l-0.4-0.2l0.1,0.2l-4-2l0.1,0l-0.7-0.4c-5.8-3-9.1-6.2-8.9-8.6c0.2-2.1,3.4-4.3,9.1-6.1
						c10.2-3.6,19.1-7,26.2-10.2c13.8-6.1,27.7-13.3,41.1-21.6l2.2,3c-14.8,12.8-33.2,24.3-54.9,34l-10.4,4.5l-2,1.9l1.1,2.5
						l1.8-0.6c0,0,0,0,0,0l1.8-2.1l0.6,0.5l5.4-4.1l1.9,0.8c7.7,3.3,16.6,6.3,24.7,8.9l0.7-1.7l0.4-1.8c-5.3-1.7-11-3.6-16.4-5.6
						l-4.1-1.5l3.9-1.9c28.7-13.9,51.7-31.3,66.5-50.2l1.2-1.5L1834,552.4z M1755.8,617.1c12.9,5.5,27.2,9.5,41.1,13.4l4.1,1.1
						c14.8,3.9,30.4,7.8,47.2,11.6c-2.6-0.9-5.3-1.7-8.1-2.6c-8.1-2.6-16.1-5.1-24.2-7.6l-1.2-0.4c-9-2.8-17.9-5.5-26.9-8.4l0,0
						l-1-0.3c-0.1,0-0.1,0-0.2-0.1l-1.8-0.6c-8.3-2.7-17.3-5.7-25.1-9L1755.8,617.1z M1741.2,608.5c0.4,0.6,1.5,1.7,3.9,3.3l3.7-3.3
						l10.7-4.6c10.9-4.9,20.9-10.2,30.1-15.9c-5.2,2.6-10.3,5-15.5,7.3c-7.2,3.2-16.1,6.7-26.5,10.3
						C1743.5,606.9,1741.8,608,1741.2,608.5z M1740.9,608.1L1740.9,608.1L1740.9,608.1z"/>
				</g>
			</g>
		</g>
	</g>
</g>
</svg>
